<?xml version="1.0" encoding="utf-8"?>
<!-- Generator: Adobe Illustrator 23.0.3, SVG Export Plug-In . SVG Version: 6.00 Build 0)  -->
<svg version="1.1" id="Layer_1" xmlns="http://www.w3.org/2000/svg" xmlns:xlink="http://www.w3.org/1999/xlink" x="0px" y="0px"
	 viewBox="0 0 200 200" style="enable-background:new 0 0 200 200;" xml:space="preserve">
<style type="text/css">
	.st0{fill:#2C221A;}
</style>
<path class="st0" d="M160.9,84.1c2.5-17-10.4-26.2-28.2-32.3l5.8-23.1l-14.1-3.5l-5.6,22.5c-3.7-0.9-7.5-1.8-11.3-2.6l5.6-22.6
	l-14-3.5L93.5,42c-3.1-0.7-6.1-1.4-9-2.1l0-0.1L65.1,35l-3.7,15c0,0,10.4,2.4,10.2,2.5c5.7,1.4,6.7,5.2,6.5,8.2L71.6,87
	c0.4,0.1,0.9,0.2,1.5,0.5c-0.5-0.1-1-0.2-1.5-0.4l-9.2,36.8c-0.7,1.7-2.5,4.3-6.4,3.3c0.1,0.2-10.2-2.5-10.2-2.5l-7,16.1l18.3,4.6
	c3.4,0.9,6.7,1.7,10,2.6l-5.8,23.3l14,3.5l5.8-23.1c3.8,1,7.6,2,11.2,2.9l-5.7,23l14.1,3.5l5.8-23.3c24,4.5,42,2.7,49.6-19
	c6.1-17.4-0.3-27.5-12.9-34.1C152.2,102.6,159.1,96.6,160.9,84.1z M128.8,129.1c-4.3,17.4-33.7,8-43.2,5.7l7.7-30.9
	C102.8,106.2,133.4,110.9,128.8,129.1z M133.2,83.9c-4,15.9-28.4,7.8-36.3,5.8l7-28.1C111.8,63.6,137.3,67.3,133.2,83.9z"/>
</svg>
