<?xml version="1.0" encoding="utf-8"?>
<!-- Generator: Adobe Illustrator 23.1.0, SVG Export Plug-In . SVG Version: 6.00 Build 0)  -->
<svg version="1.1" class="Layer_1"
    xmlns="http://www.w3.org/2000/svg"
    xmlns:xlink="http://www.w3.org/1999/xlink" x="0px" y="0px" viewBox="0 0 1000 1314.7" enable-background="new 0 0 1000 1314.7" xml:space="preserve">
    <style>

	.flash-1{
		opacity: 0;
		animation: flash 1.5s infinite;
		height: 100%;
	}

	.flash-2{
		opacity: 0;
		animation: flash 2.5s infinite;
		height: 100%;
	}
	
	@keyframes flash{
		0%, 8%, 14%, 100%{opacity: 0;}
		4%, 12%{opacity: 0.7;}
	}

	.card{
		animation: card 4s linear infinite;
	}

	@keyframes card{
		0%, 100%{transform: initial;}
		25%{transform: translate(4px, 4px);}
		50%{transform: translate(0px, 8px)}
		75%{transform: translate(-4px, 4px);}
	}

	.layer-4{
		transform-origin: 500px 679.1px;
		transform: scaleX(-1);
	}
	
	.layer-1 .top,
	.layer-1 .bottom,
	.layer-1 .right,
	.layer-1 .left,
	.layer-2 .top,
	.layer-2 .bottom,
	.layer-2 .right,
	.layer-2 .left,
	.layer-3 .top,
	.layer-3 .bottom,
	.layer-3 .right,
	.layer-3 .left,
	.layer-4 .top,
	.layer-4 .bottom,
	.layer-4 .right,
	.layer-4 .left,
	.layer-5 .top,
	.layer-5 .bottom,
	.layer-5 .right,
	.layer-5 .left{
		animation-duration: 4s;
		animation-iteration-count: infinite;
		animation-name: layers-1;
	}

	@keyframes layers-1{
		0%{opacity: 1;}
		30%{stroke-dashoffset: 0;}
		40%{opacity: 1;}
		45%{opacity: 0;}
		50%{opacity: 1;}
		100%{stroke-dashoffset: 0; opacity: 1;}
	}

	.layer-2 .top,
	.layer-2 .right,
	.layer-2 .bottom,
	.layer-2 .left,
	.layer-4 .top,
	.layer-4 .right,
	.layer-4 .bottom,
	.layer-4 .left{
		animation-name: layers-2;
	}

	@keyframes layers-2{
		0%{opacity: 1;}
		40%{stroke-dashoffset: 0;}
		50%{opacity: 1;}
		55%{opacity: 0;}
		60%{opacity: 1;}
		100%{stroke-dashoffset: 0; opacity: 1;}
	}
	/* ======== LAYER 1 ========= */

	.layer-1 .top{
		stroke-dasharray: 1060;
		stroke-dashoffset: 1060;
	}

	.layer-1 .right{
		stroke-dasharray: 1320;
		stroke-dashoffset: 1320;
	}

	.layer-1 .bottom{
		stroke-dasharray: 1030;
		stroke-dashoffset: 1030;
	}

	.layer-1 .left{
		stroke-dasharray: 1400;
		stroke-dashoffset: 1400;
	}


	/* ======== LAYER 2 ========= */

	.layer-2 .top{
		stroke-dasharray: 980;
		stroke-dashoffset: 980;
	}

	.layer-2 .bottom{
		stroke-dasharray: 970;
		stroke-dashoffset: 970;
	}

	.layer-2 .right{
		stroke-dasharray: 1300;
		stroke-dashoffset: 1300;
	}

	.layer-2 .left{
		stroke-dasharray: 1300;
		stroke-dashoffset: 1300;
	}

	/* ======== LAYER 3 ========= */

	.layer-3 .top,
	.layer-3 .bottom{
		stroke-dasharray: 1000;
		stroke-dashoffset: 1000;
	}

	.layer-3 .left,
	.layer-3 .right{
		stroke-dasharray: 1380;
		stroke-dashoffset: 1380;
	}

	/* ======== LAYER 4 ========= */

	.layer-4 .top,
	.layer-4 .bottom{
		stroke-dasharray: 1000;
		stroke-dashoffset: 1000;
	}

	.layer-4 .left,
	.layer-4 .right{
		stroke-dasharray: 1400;
		stroke-dashoffset: 1400;
	}

	/* ======== LAYER 5 ========= */

	.layer-5 .top,
	.layer-5 .bottom{
		stroke-dasharray: 870;
		stroke-dashoffset: 870;
	}

	.layer-5 .left,
	.layer-5 .right{
		stroke-dasharray: 1200;
		stroke-dashoffset: 1200;
	}

	</style>
    <defs>
        <filter id="shadow" x="0" y="0" width="200%" height="200%">
            <feDropShadow dx="0" dy="0" stdDeviation="3" flood-color="#FCD0EE" flood-opacity="1" />
        </filter>
        <filter id="shadow2" x="0" y="0" width="200%" height="200%">
            <feDropShadow dx="0" dy="0" stdDeviation="30" flood-color="#FCD0EE" flood-opacity="1" />
        </filter>
    </defs>
    <!--<rect width="1000" height="1320" />-->
    <g opacity="1" filter="url(#shadow2)">
        <g class="layer-1" opacity="0.4">
            <polyline class="top"  opacity="0.4" fill="none" stroke="#B61879" stroke-miterlimit="10" points="65.4,105.2 72.2,99.6 77.8,93.4    85.6,90 93.4,84.3 101.9,90.6 110.9,88.1 117.1,96.3 126.5,95.5 135.9,96.8 139.3,107.2 145.8,112.8 158.2,112.1 163.6,114.8    169.4,119.7 178,126.4 185.8,121.9 191.9,115.4 198.4,109.7 208.2,110 212.3,99.7 219.8,95.6 228.4,93.5 235.7,88.6 245.5,90.6    253.4,87.2 262.1,92.7 270.5,86.5 279.7,85.4 285,96 294.9,94.5 300.8,100.2 308.5,102.3 315.3,106.3 319.9,115 331.4,108.6    339.8,114 345.4,124 354.7,118.7 363.3,123.3 368.8,113.6 377.4,113.3 386.7,110.2 384,97.8 396,94.9 404.1,98.4 411.7,101.9    420,102.8 428.1,104.5 436.6,103.6 445.1,106.8 451.6,97.1 463.1,103 472.4,104.4 479.9,96.1 488.8,95 497.4,92.4 506.6,93.7    515.9,95.5 524.6,94.9 532.4,84.5 541.6,87.7 550.4,85.9 560.9,86.7 568.3,93.2 570.3,105.2 579.9,109.9 588.6,106.5 596.3,111.5    607.1,109.6 612.1,120.5 622.7,119.2 630.2,124.6 638.2,129.7 647.1,132.8 656.3,134.7 665.6,129.2 673.3,126.7 680.3,119.6    683.6,117 689.2,106.1 696.9,101.6 705.4,100.9 714.5,104.2 723.4,107.9 730.5,98.7 738.4,95 746.8,95.8 755.2,95.8 763,92.7    770.8,90.1 780.3,93.6 789.3,93.3 795.1,83.4 803.9,86.3 812.5,85.7 818.7,93.4 826.1,96.1 835.8,96.2 838.5,106.6 848.3,109.3    857.3,108 866,109 874.5,110.7 882.6,100.3 891,106.2 899.7,104.2 908.3,108.2 917,108.1 925.7,105.4 930.9,107.9  " />
            <polyline class="left" opacity="0.4" fill="none" stroke="#B61879" stroke-miterlimit="10" points="56.5,1243.4 53.3,1235.1    64.5,1226.9 57.5,1218.3 66.6,1211.4 57.1,1201.5 69.3,1193.9 60.9,1182.7 73.3,1177.2 75.4,1168.5 76,1159.3 74.5,1149.4    75.7,1140.6 77.8,1132.3 87,1124.9 88.8,1115.8 85.4,1106.5 85.3,1097.3 78,1090.3 71.9,1084.1 71.1,1074.3 66.5,1066.6    62.4,1058.6 56.7,1051.5 53.5,1043.1 47.6,1035.5 53.5,1024.8 52.8,1016.3 50.3,1007.8 49,999 51.6,990.6 45.9,979.2 52.7,972.4    56.2,964.4 62.8,957.9 61.2,947.6 67.8,940.9 74.2,934.2 75.1,925.1 80.4,917.8 81.7,908.9 86.7,901.3 81.7,890.8 91.3,884.1    94.9,875.7 85.1,865.5 90.5,857.6 81.6,856.1 75.7,850.4 73.1,842.6 68.7,834.8 76.3,825.7 75.5,817.5 68.8,810.1 64.9,802.3    62.8,794.3 65.1,785.7 59.8,775.3 60.5,765.3 68.5,758.8 72.4,751.3 78.3,744.9 80,735.1 83.5,730.1 77.1,724.6 80.2,714.2    73.7,708.1 74,698.3 63.9,694.1 69,682.5 63.8,676 59.5,668.5 57.4,660.3 53.5,648 59.4,639.9 56.2,630.7 59.6,622.3 67.7,615.1    67.6,606.5 68.4,597.7 72.4,590 71.3,580.1 79.7,574.3 83,566.3 83.1,557.2 85.7,549.1 89.3,540.8 92.3,531.5 84.2,524.1    83.7,513.2 73.8,513.1 70.1,505.9 70.6,498 65.9,490.6 64.4,482.9 71.5,470.3 62,462.6 73.1,456.5 69.9,446.2 74,438.6 83.6,435.1    80.8,424.1 86.9,414.9 83.1,406.4 83.5,397.1 75.2,390.4 78.5,379.9 72.4,372.7 69.8,364.2 64.2,356.5 60.7,348.1 65.8,338.2    63.9,329.6 59.4,320.5 58.4,309.1 59.6,300.4 65.9,291.9 59.7,283 59,274.3 64.8,265.3 63,256.2 61.4,247.1 59.2,238.1 62.5,227.9    60.8,218.9 50.9,212.2 58.9,206.7 62.7,198.5 67,190.6 73.5,184 77.7,176 84.3,169.1 85.3,159.4 83.2,149.4 89.9,141.4 82.5,133.5    86.9,122.4 74.9,120.4 75.3,106.6 65.4,105.2  " />
            <polyline class="bottom" opacity="0.4" fill="none" stroke="#B61879" stroke-miterlimit="10" points="934.7,1266.5 923.7,1266.3    916.4,1267.3 909.1,1267.5 898.6,1270.7 891.1,1265.6 885.5,1258.4 875.8,1257.1 871.1,1248.8 864.6,1242.6 857.3,1236.1    847.3,1239.6 838.5,1241.8 830.3,1237.3 821.3,1233.2 813.8,1243.9 804.7,1240.7 796.7,1244.8 788.7,1248.1 778.9,1243.9    771.9,1251.7 762.5,1249.9 754,1251.8 744.8,1250.9 737.2,1256 727.9,1253.9 720.9,1262.9 709.4,1264.9 703.5,1254.6 696.4,1247.5    685.9,1244.3 677.2,1245.1 668.5,1247.2 660,1244.8 651.1,1249.3 642.5,1247.8 634,1243.1 625,1249.3 616.6,1241.6 607.8,1243.3    596.6,1242.3 586,1243.3 580.2,1253.1 573.4,1255.9 565.2,1257.6 558,1262.4 549.2,1262.8 541.4,1258.1 533,1257.8 525.4,1254.3    515.7,1255.9 508.5,1251.5 502,1244.9 493.5,1244.7 485.3,1246.1 473.8,1246.4 464.7,1244.1 456,1246.2 446.9,1245.6 438.4,1248    429.8,1250.8 420.6,1249.9 412.6,1255.1 403.4,1254.4 394.6,1256.2 388.7,1253.2 382.9,1248.9 375.6,1245.3 366.1,1254.3    357,1253.5 348.9,1245.4 339.9,1247.3 331.7,1243.4 323.5,1240.2 315.9,1234.9 307,1234.3 295.9,1240.5 287.7,1237.3 281.4,1227    272.4,1231.8 264,1232 257.5,1238.9 247.8,1237.7 242.9,1246.1 229.9,1242 227.2,1253.4 221.9,1260.9 212.6,1263.1 204.1,1267.9    195.1,1274.1 184.4,1273.1 174.2,1269.9 172.5,1256.3 162.6,1252.5 153.8,1248.3 146.4,1241.9 138.5,1235.4 128.5,1235.8    119.5,1237.7 110.8,1231.1 103,1239.5 94.6,1240.5 85.9,1241.5 77.4,1243.3 70.8,1249.9 63.4,1247.1 56.5,1243.4  " />
            <polyline class="right" opacity="0.4" fill="none" stroke="#B61879" stroke-miterlimit="10" points="930.9,107.9 933.9,118.3    935.2,128.1 927.8,136.1 933.2,145.8 933.8,154.9 929.2,163.3 923.2,171.6 928.8,181 923.5,189.6 930.1,198.8 921.9,207.6    921.5,216.8 927.9,225.3 930.2,234 929.4,243 930.2,252 931.3,261 936.1,268.9 940.9,276.5 941,286.2 949.1,291.9 952.2,301.6    945.8,310.1 943.4,318.6 940.3,327.4 945.2,337.4 934.5,345 935.7,353.8 939.2,362.8 936.3,371.1 930.5,379 934.9,388.2    929.6,396.2 931.2,405.1 932.4,413.9 934.7,425.3 934,433.7 936,442.8 939.9,451.8 939.8,461.7 940.5,469.6 936.4,476.9    934.5,485.5 927.5,492 932.4,504.3 926.6,511.8 930.6,523.1 925.1,534.1 923.5,543.3 934,550.8 931.6,560.1 936,568.1 933.9,577.7    936.6,586.2 940.2,594.3 938.3,604.3 943.6,611.8 944,621.6 948.2,626.4 947.1,633 944.1,642 946,652.3 940.4,660.3 940,669.9    938,678.9 931.1,687 932.7,698.9 931.1,708.2 932.1,717.5 932.4,727 943.4,732.7 942,742.9 946.2,750.9 953.8,757.6 954.1,767.1    949,774.8 945.5,782.7 940.2,789.3 929.3,791.2 930.2,802.3 927.9,810.9 935.8,821.3 932.9,830.2 937.1,838.3 936.3,847.1    940.8,855.1 936.1,864.5 936.3,873.1 937.3,881.7 943.4,889.4 941.1,898.4 939.2,907.5 943,915.5 949.6,923.2 948.5,932.4    940,939.7 939.2,947.9 938.3,956.6 937.3,965.5 938.2,975 931,981.7 928.7,990.2 931.1,1000.1 925.1,1007.3 925.7,1016.5    923.5,1024.8 914.4,1031.9 912.3,1040.6 918.1,1050.2 919.1,1058.8 915.8,1067.4 920.1,1075.8 916,1085 917.5,1093.8 922.3,1100.9    923.1,1110 929,1115.7 936.4,1121.9 931.7,1130.3 934.7,1141.6 933.5,1152.3 928.9,1161.4 940.5,1169.9 935.4,1179.4 931.8,1189.1    940.9,1197 944.4,1205.7 946.1,1214.7 939.6,1224.6 946.3,1232.7 936.9,1240.3 939.5,1249 936,1256.5 934.7,1266.5  " />
        </g>
        <g class="layer-2" opacity="0.6">
            <polyline class="top" opacity="0.6" fill="none" stroke="#B61879" stroke-miterlimit="10" points="59.2,93.5 66.9,95 73.6,94.3    80.4,93.7 86.8,96 93.7,96.1 100.7,96.8 105.5,102.7 111.8,105.3 118.1,108.2 122.5,113.6 131.2,114.7 134.7,121.1 137.5,127.9    141.5,135.4 150.2,134.3 157.6,138.9 164.3,133.4 171.7,132.1 180.7,128.7 186.9,124.2 194.3,126.4 200.7,128.1 207.3,130.1    217.6,129.7 224.2,129.7 232.6,134.6 239.6,131.3 245.7,126.6 252.2,123 257.2,117.1 263.3,113 271,111.3 276.9,106.7 285.3,107.1    289.9,97.1 298,94 306.4,91.5 312.9,87.8 320.5,91.3 327.2,91.9 333.6,94.2 341.2,92.5 348.7,92.5 353.9,98.3 360.3,101    366.4,104.6 374.1,104 379.3,110.3 386.6,110.4 392.6,113.9 401,116.5 407.1,119.4 410.3,126.1 417.7,126.6 422.5,132.4    430.4,130.7 437.7,129.7 445.6,131.4 452.8,129.2 460.3,128.7 467.5,126 474.9,125.4 482.1,127.5 490.4,127.4 493.8,136.5    504.4,133.5 511.6,134.4 518.3,131.9 522.5,125 531.4,126.3 536.3,120.9 542,116.8 547.8,112.9 554.4,110.5 561.3,109.5    569.4,109.9 577.6,106.7 584.6,108 591.1,105.6 598.9,105.6 606.3,103.4 610.7,96.9 617.6,94.1 621.5,86.6 629,84.9 636.1,88.2    643.7,87 648.4,93.7 656.1,93.8 661.5,98.2 666,104.2 672.5,106.9 679.5,108 686.5,111.3 694.5,110.1 699.6,107.6 705.1,109.9    712.3,108.4 718.9,111.9 726.6,110.6 733.4,113.3 740.1,116.7 745.9,121.8 750.1,126.8 755.2,131.1 761.3,135.6 768.5,132.2    775.2,131.3 781.6,129.4 790.2,132.3 794.8,125.5 802.9,124.9 806.2,117.5 814.2,115.4 817.7,107.8 825.4,109.5 835.7,108.2    845.5,106.9 856,106 863,111.9 869.2,116 876.1,119.6 879.8,126.7 886.5,131.4 892.6,138.2 896.8,133.7  " />
            <polyline class="left" opacity="0.6" fill="none" stroke="#B61879" stroke-miterlimit="10" points="99.2,1216.8 98.5,1210.6    102.1,1205.2 105.7,1199.5 108.4,1193.2 109.3,1187.3 114.6,1180.3 107.9,1172.4 108.9,1164.2 102.2,1159.5 100.6,1152.4    98.9,1145.4 93.7,1140.1 88.4,1134.3 88.2,1126.8 89.8,1119.4 90.9,1112.2 90.5,1102.8 88.8,1094.6 93.8,1088.5 96,1081    103.2,1076.3 101.8,1067 107.5,1060.9 104.8,1053.5 109.5,1046.6 107.6,1039.5 109.4,1032.2 105.3,1025.5 103.8,1018.5    104.8,1011.2 101.2,1004.7 97.6,998.3 97.8,991 95.6,984.2 91.9,977.8 95.7,969.6 94,962.8 87.7,956.9 91.8,948.9 85.5,942.7    89.2,935.2 86.6,928.3 84.3,921.1 86.8,911.9 86.5,902.6 88,896.3 91.2,889.8 87,883.4 86.2,874.7 88.1,867.4 92.7,861.4    96.5,855.7 96.3,847.5 101.9,842.4 100.8,834.2 105.1,828.5 106.3,821.7 106.1,814.4 104.7,807 97.2,802 97.3,794.2 98.1,786.3    95.9,779.4 89.7,773.4 90.1,765.8 91.5,758.2 90.8,751 89.8,743.8 89,736.6 86.7,729.2 85,720.3 91.1,712.2 85.4,705.6 81.1,699.2    79.9,691.2 76.6,684.4 71.8,678 68.5,671.3 69.1,664 72.5,657.4 73.8,650.6 78.5,645.1 81.2,638.9 82.4,631.8 83,624.5 85,618.8    88.7,612.7 90.6,606 86.2,597.2 89.9,589 87.3,581.7 86,574 88.3,566.7 94.6,561.2 97.9,554.6 98.3,546.7 100,539.4 105.3,533.4    107.5,526 108.2,518.5 103.9,511.1 105,503.7 106.4,496 105.4,488.6 98.1,482.7 100.6,474.5 94.3,468.6 97.7,460 95.5,452.9    91.6,446.3 87.6,439.6 86.2,432.2 84.7,424.8 89.9,417.1 89.5,409.8 87,402.6 88.4,395 95.2,391.3 98.1,383.3 104.5,379.3    113.3,378.1 116.9,370.6 116.7,362.5 119.9,356 119.6,348.7 121,340.7 117.7,333.8 113.1,327.6 107.9,321.9 103.7,315.7 102,308.1    101.4,299.9 94.3,295.1 92.6,289.6 88.9,284.9 89.4,276.7 87.8,269.5 84.3,262.8 80,258.8 79.5,252.7 75.5,246.7 77.2,239.1    72.8,232.7 71.7,225.7 77.1,218.9 78.4,212.2 73,204.4 79.3,198.4 80.1,191.5 79.3,184.3 79.2,177.2 78.6,170.2 81.6,163.7    82.7,154.9 80.4,146.5 75.1,137.2 73.5,130.6 71.9,123.9 65,120.1 65.9,111.9 62.3,106.2 61.4,101.2 59.2,93.5  " />
            <polyline class="bottom" opacity="0.6" fill="none" stroke="#B61879" stroke-miterlimit="10" points="926,1252.3 919.9,1253.1    912.3,1249.8 908.4,1240.8 900,1235.6 897.3,1227.9 892.9,1221 885.7,1222 878,1221.5 870.2,1221.1 863.6,1226.6 855.4,1224.2    847.9,1225.4 840.5,1226.8 832.7,1226.6 826.2,1233.3 818.1,1229.2 811.2,1232 807.9,1238.6 801,1238.9 798.4,1246.3 791.2,1248.5    783.2,1247 776.1,1246.3 769.2,1250.7 762.3,1247.6 754.2,1251.5 747.9,1246.8 740.4,1245.4 735,1240.2 729.9,1234.9 724.9,1229.8    720.3,1224 711.6,1221.2 704.1,1216.6 695.5,1214.2 688.4,1218.2 682,1219.9 674.8,1220.2 669.2,1224.9 661.9,1226.4 654.1,1226.6    647.9,1229.6 641.4,1233 635.2,1236.2 628.9,1232.8 622.6,1233.1 616.2,1234 607.1,1230.6 600,1234.1 595.2,1241.6 586.7,1240.4    579.5,1241.7 573.8,1248.5 565.7,1245.3 558.6,1251.3 551.9,1244.2 544.5,1244.4 538.4,1240.6 529.6,1240.9 524.5,1237 518,1235.2    510.5,1235.8 506.7,1229.4 500.8,1228.6 495.8,1221.9 488.1,1223 481.6,1219.6 474.2,1222.8 467.4,1219.1 460.8,1223.2    453.4,1221.2 447.5,1226 441.2,1228.6 435.6,1232.4 427.8,1232.9 421.4,1236.1 418.8,1244.9 408.6,1242.7 401.8,1243.9    395.1,1244.5 388.5,1245.6 381.7,1246.3 374.9,1245.9 369,1243.2 365.7,1237.4 360.6,1232.5 354.5,1228.4 350.5,1223.3    341.4,1219.7 336.4,1211.7 328.4,1210 320.2,1213.7 312.8,1213.3 304.9,1213.6 299.5,1219.5 290.9,1219.1 286.1,1225.8    278.7,1227.7 271.8,1231.1 264,1230.1 253.7,1234 246.8,1234.1 240.5,1236 236.4,1241.6 230.5,1244.6 226.7,1250.5 218.2,1249.7    212.7,1256.5 204.9,1252.5 197.7,1251.8 191.2,1248.5 184.8,1244.5 175.8,1245 169.6,1241.2 164,1235.4 156.4,1234.9 147.1,1236.6    139.6,1235.1 132.7,1230.4 125.3,1230 118.2,1228 112.3,1223.5 104.5,1222.2 99.2,1216.8  " />
            <polyline class="right" opacity="0.6" fill="none" stroke="#B61879" stroke-miterlimit="10" points="896.8,133.7 896.5,139.1    901.9,145.6 909.4,146.6 913.8,151.8 914.3,159.1 914.6,164.2 912.1,170.8 911.5,178.1 906.9,184.2 909.7,192.5 905.4,199.3    906.5,207 913.5,211.4 917.5,217.4 921.7,223.2 923.4,230.5 922.5,238.4 927.7,244 932.3,250.2 929,258 928.9,265 934.8,271.8    929.2,278.8 933.8,286.1 928,292.6 928.7,299.8 928.4,306.9 926.3,313.6 925.7,320.7 921.8,327 918.9,333.5 917,340.2 915.1,347    914.5,354.2 914.8,361.7 910.9,367.9 911.1,375.3 910.9,382.6 905,388.4 908.9,395.9 904.5,403 905.4,410.2 905.5,417.9    908.2,424.8 912.6,430.8 921,434.1 922.5,441.6 925.4,448.4 931.8,452.4 936.2,458.8 940.8,465.9 938.6,474.1 934.5,480.8    931.8,487.7 928.5,493.7 922.5,498.1 916.8,503 915.5,510.3 911.9,516.5 908.4,522.9 906.3,529.9 906.3,537.3 908.2,544.5    908.9,551.5 912.3,558 910.8,565.5 912.6,572.3 918.7,577.4 917.8,585.6 925.3,589.3 925.1,597.9 931.7,601.9 935,612.3 938,619    936.3,626.7 936.9,633.6 937,640.6 936.4,647.5 934.6,654.2 934.8,661.9 931.2,668.2 926.9,674 924.5,680.7 925.4,688.1 921.6,697    922.7,704.8 926.4,710.4 927.6,717 927.6,724.7 934.6,728.6 936.6,735.2 939.1,741.5 939.9,748.7 937.5,755.6 934.7,761.8    936.6,770.3 928.9,773.8 925.6,780.1 922.5,786.8 916,790.4 911.7,796.2 906.7,801.3 904.1,808.6 898.1,812.5 894.7,822.2    899.1,828 903.2,833.9 904.1,841.1 904.4,848.4 905.3,855.5 907,862.3 909.8,868.7 913.6,874.8 917.6,880.9 922.1,886.9    919.9,894.7 919.6,902.2 924.9,911.1 926.6,918.7 928.3,926 928.5,933.2 926.5,940.1 927.2,947.2 923.7,954 923.9,961.2    923.8,968.3 923.3,976 927.2,982.5 930.2,989.2 936.3,993.7 937.3,1001.2 940.4,1009.5 935.2,1016.3 932.6,1023.8 927.9,1032.8    921,1041.3 919.7,1048.6 920.7,1056.6 914.1,1061.5 909.9,1067.5 905.1,1073.4 899.5,1078.1 891.1,1079.9 885.7,1086.2    885.6,1094.7 889.9,1101.6 886,1109.9 890.3,1116.3 895.2,1122 899.8,1127.6 899.4,1136.4 906.1,1140.6 912.5,1145.2 912.2,1153.7    916.8,1159.5 919.9,1168.2 924.1,1173.8 926.3,1180.1 924.1,1186.9 922.5,1195 927.6,1201.6 930.3,1208.7 932.3,1216 935.1,1223.3    934.8,1233.7 930,1242.1 927.9,1252.1 926,1252.3  " />
        </g>
    </g>
    <g opacity="0.6" filter="url(#shadow)">
        <g class="layer-3" opacity="0.7">
            <polyline class="right" opacity="0.7" fill="none" stroke="#B61879" stroke-miterlimit="10" points="926.4,1220 926.3,1213.3    926.8,1206.7 924.7,1200.8 925.3,1193.2 930.8,1187.2 932,1179.8 935.2,1173.2 936.5,1165.7 939.6,1158.9 943.2,1152.5    949.1,1147.2 951,1140 954.8,1133.5 956.5,1126.2 958.1,1119 955.9,1111.5 960.1,1103.9 957.5,1096.7 953.8,1090 948,1085.5    947.2,1077.3 941.2,1073 936.8,1067.5 932.8,1061.7 929.2,1055.5 922.7,1051.6 917.9,1046.3 913.7,1040.4 913.7,1032.5    909.6,1026.4 910.9,1019.2 909.1,1011.5 914.7,1006.2 916.5,999.1 921.9,993.9 925.5,987.8 927.4,980.8 927.2,973.3 930.5,967    933.1,960.4 936.1,953.8 938.8,947.2 939,940 941.6,933.3 942.6,926.2 942.8,919.1 943,911.9 945,905.1 948.4,898.6 949.9,891.7    947,883.8 952.4,877.8 952.3,870.5 951.2,863.3 952.4,856.6 951.9,849.6 951.3,842.3 947.5,836.1 942.5,830.8 939.1,824.6    935.4,818.4 931.3,812.6 924.3,809 921,802.5 920.2,794.7 914.4,789.7 911.9,782.5 913.2,774.7 911.6,767.5 910.8,759.5    915.3,752.8 920.6,748.2 927.3,744.6 932,739.2 936,733.3 936.5,725.2 941.1,719.8 943.9,713.4 947.5,707.3 949.1,700.4    951.9,693.9 955.1,687.4 954.5,680.1 956.4,673.3 955,666.1 956.5,659.2 956.5,652.1 957.2,644.9 954.9,638.1 952.4,631.4    948.4,625.5 943.1,621.2 937.6,615.6 936.7,608.5 935.8,601.3 936.9,593.6 935.8,586.3 930.5,580.2 927.9,573.4 926.7,566.1    925.1,559 923,552 922.8,544.3 917.5,538.4 918.5,530.4 913.6,524.3 911.1,517.4 910.4,510.1 911.2,503.6 912.8,497.7 915.4,491.6    920.1,486.8 923.7,481.1 929.2,477 932.1,470.3 933,462.9 935.7,456.2 938.5,449.3 937.8,441.8 940,434.8 940.3,427.5 942.2,420.5    943.1,413.3 944,406.1 944.7,398.9 948.3,392.1 945.8,384.4 946.4,377.1 948.6,370.1 953.4,363.7 954.4,356.6 955.5,349.4    957.5,342.4 958,335.6 961.4,329 961.2,321.7 956.4,316 951.4,311.3 948.4,305.1 946,298.2 938.2,296 935.7,288.1 935,280.5    934.9,273 933.5,262.4 934.4,252 935.4,241.9 934.8,234.6 931.6,228 931.1,220.5 927.6,214 924.1,207.5 920.7,201 916.4,194.8    913,188 915.9,180 913.6,173.6 915.9,167.4 918.1,160.8 924.5,157.7 930.1,153.7 936.5,150.8 941.1,145.3 944.9,139.5 948.3,133.7    948.4,127 951.3,116.8 947.2,111.2 943.7,105.8  " />
            <polyline class="bottom" opacity="0.7" fill="none" stroke="#B61879" stroke-miterlimit="10" points="81.2,1253.9 88.2,1258    96.6,1257.9 104.1,1257.8 110.8,1254.3 117.8,1251.6 124.8,1249 131.4,1245.3 138.6,1243.2 146.2,1242.4 153.3,1239.9    160.9,1240.2 170.4,1239.5 177.5,1239.5 184.7,1239.6 191.4,1242.2 199.5,1240.9 205.5,1245.7 212.6,1247.5 219.6,1249.6    225,1255.5 232.1,1257.2 239.8,1256.7 246.1,1261.9 253.6,1261.1 260.9,1260.2 267,1255.9 274.5,1254.1 280.5,1249.2 285.6,1244    291.7,1240.3 298.5,1237.1 305.7,1235.8 314.1,1237.1 318.7,1230.5 324.9,1226.3 330.9,1221.9 338.7,1220.6 344.9,1216.5    352.5,1215.6 359.1,1211.5 366.7,1210.8 373.9,1213.6 381.5,1214 387.5,1218.6 394.1,1222.5 400.3,1230.4 409.2,1235.1    415.3,1238.4 419.9,1244.3 425.3,1248.8 432.1,1251.7 434.6,1259.5 441.9,1260.6 445.9,1265.1 449.8,1272 455.2,1277.2    460.6,1282.4 468.6,1284.7 472.9,1291.1 478.5,1296.3 485.9,1298.5 492.9,1300.7 499.8,1303 506.3,1300.2 512.8,1296.7    514.2,1289.7 517.3,1283.7 522.1,1277.5 520.5,1270.2 521.6,1263.3 524,1256.6 523.1,1249.3 527,1243.4 530.7,1237.5 537.1,1234.8    542,1228.5 551.6,1225.3 558.2,1222.8 566.2,1225.3 572.2,1221.1 578.8,1218.9 585.7,1217.7 592.6,1216.5 599.7,1214.8    606.9,1215.4 613.9,1216.8 619.2,1223.3 627.1,1222.3 632.1,1228 637.8,1232 644.2,1234.9 651,1237.1 656.2,1242.2 662.2,1245.8    669.2,1247.6 676,1249.8 680.7,1256.3 688.8,1254.8 695.2,1257.4 701.7,1260.5 708.7,1258.1 715.9,1260.2 722.3,1257.1    728.9,1254.9 733.3,1249.2 739.8,1245 745.5,1241 751.9,1237.7 759.2,1238.1 766.1,1236.8 772.4,1232.8 779.3,1231.4 786.8,1233.7    793.1,1228.5 800.2,1227.8 807.4,1228.9 817.6,1230.5 824.9,1227.5 831.9,1229.9 838.9,1232.3 846,1233 852.9,1234.1 860.1,1234.2    869.2,1234.4 875.4,1238.3 882.8,1238.7 890.6,1237.2 896.9,1232.5 902.7,1227.3 908.7,1224.2 916.5,1226.4 921.5,1223.4    926.4,1220  " />
            <polyline class="left" opacity="0.7" fill="none" stroke="#B61879" stroke-miterlimit="10" points="79.3,88.3 75.7,94.7 70.7,99.6    68,106.3 68.3,113.6 71.3,120.4 74.4,127.1 78.6,133.2 80.4,140.4 81.7,147.7 87.8,153 87.7,160.9 89.6,167.9 93.7,176.5    96.4,183.2 97.8,190.2 97.8,197.9 101.9,204 104.4,210.8 107.8,217.2 113.2,222.5 112.9,230.6 117.8,236.3 118.9,243.5    120.3,250.4 118.7,257.3 117.3,263.6 115.8,271 110.9,276 109.1,283 105.4,288.7 99.5,293.8 97.7,300.7 95.4,307.5 98.8,315    98.5,321.9 97.3,328.8 93.9,335.7 97.1,342.6 96.4,349.6 95.9,356.6 96.8,363.5 96.7,370.5 95.2,376.3 99.2,382.1 96.5,389.3    95.7,396.8 96.5,404.2 102.4,410.4 101.9,418.1 101.9,425.9 106.4,432.1 107.2,439.6 109.3,446.6 114.5,452.7 112.9,460.6    116.9,466.5 118.8,472.9 118.1,479.7 114.2,485.2 108.3,489.4 104.6,495.5 101.1,501.7 96.9,507.3 94.8,514.3 89.7,519.5    87.6,526.3 85.8,533.1 83.9,539.8 77.7,545.2 75.9,552.2 79,559.9 74.8,566.5 77.8,573.6 74.1,580.9 78.2,587.4 77.5,595.1    80.7,601.6 87.3,605.9 90.8,612 94.6,618.2 99.7,623.2 105.9,627.3 108,634.8 111.8,640.7 118.9,644.8 117.8,653.2 122.3,659.1    125.3,665.7 124.3,672.9 119.1,678.1 116.8,685.3 109.6,685.2 102.5,686.3 99.8,693.4 100.4,700.6 98.1,707.4 96.2,714.3    95.3,721.3 95.8,728.6 95.1,734.4 89.6,739.2 91.6,746.7 88.6,752.7 85.5,758.4 81.6,764.5 76.2,769.3 74.2,776.6 68,780.4    65.2,787.4 59.7,792 53.9,796.2 48.2,800.7 45,807.2 42.8,814.1 38.6,819.8 39.9,826.6 39.2,833.6 42.3,840.3 49.6,842.4    56.1,846.9 63.5,843.8 70.6,844.8 77.8,845.1 82.9,850.6 90.6,852.7 92.3,860.1 91.6,866.3 96.8,870.6 99.2,877.2 101.3,884    104.7,890.3 107,897.1 106.3,905 110,911.2 111.9,918 113.2,925 118.1,931.1 116,938.8 119.7,945.5 118.9,952.7 117.9,959.7    115.1,966.3 114.8,973.8 108.2,978 103.9,988.5 96.5,991.9 94.1,999.8 86.7,1003.5 82.6,1010 80.7,1017.6 76.7,1024.2 74.3,1031.6    74.2,1039.6 75.7,1046.5 81.4,1052 80.6,1059.4 81.4,1066.2 84.9,1072.3 84.8,1079.1 82.7,1085.6 86.1,1091.9 84.6,1097.5    81.2,1104.1 83.4,1111.3 81.3,1118.1 79.4,1125 79,1131.9 82.8,1138.9 82.1,1146 85.2,1152.3 87.4,1159 89.8,1168.6 95.6,1174.1    97.1,1181.8 98.5,1189.5 96.3,1196.9 92.7,1203.7 89.7,1210.5 86.7,1217.2 86.5,1225 84.2,1232.1 80.9,1238.9 81.2,1246.5    81.2,1253.9  " />
            <polyline class="top" opacity="0.7" fill="none" stroke="#B61879" stroke-miterlimit="10" points="943.7,105.8 937.6,103.4    930.9,100.6 923.8,99.5 916.7,98 909.5,98.4 902.1,94.1 894.8,96 887.4,96.2 880.3,99.4 873,100.1 865.6,99.7 858.4,101.5    850.9,99.9 843.6,103.1 837.3,100.8 830.8,101.4 823.9,99.1 816.9,97.9 810.5,94.4 802.5,95.7 796.3,92 789.5,89.7 783.5,85.1    776.4,83.9 769,84.6 762.3,81.6 755,80.2 747.9,82.3 740.5,83.2 735.8,90.4 728.8,92.9 721,94.4 717,101.5 711,105.7 702.9,106.9    697.9,112.7 691.1,115.3 684.2,117.5 677.9,121.1 670.9,123.7 663.8,121.6 656,122.1 650.1,117.2 644.7,113 637.5,112 632.5,107    626.6,103.5 620.6,100.2 614.4,100.1 609.2,97.5 603.1,93.2 596.2,90.3 589.3,87.1 584.2,81.5 578.1,77.2 573.9,70.9 567.4,67.1    562.4,61.6 556.2,57.6 550.9,52.4 544.6,51 539.7,46.8 531.9,51 525.3,54.6 519.8,59 511.8,58.1 504.6,57.6 497.7,62 490.2,59.7    483.3,62.4 477.4,67.7 476.2,75.6 472.5,82.3 468.9,89.3 464.3,95.9 456.2,98 449.8,103.4 439.6,101.1 432.5,101 425.7,103.6    418.7,103.6 411,102.7 404.8,106.7 400.4,112.8 394.9,116.7 388,119.9 383.5,126.5 375.8,126.1 369.1,123 362.3,121 355.2,119.8    348,118.2 341.1,115.6 334.2,112.8 327.2,110.6 319.5,110.2 312.1,109.4 304.8,108.1 297.8,106.1 288.9,101.5 281.5,101.1    273.6,103.1 267.1,97.7 260,96 252.3,95.9 245.7,92.4 238.1,91.7 231.3,88.7 224.1,86.8 218.1,81.7 210.7,80.1 201.1,80    196.9,86.9 192.8,93.1 186.7,97.4 180.5,101.4 175.9,107.9 168.4,110 159.4,107.6 152.5,106.2 145.8,104.2 138.6,103.7    132.2,100.1 124.4,101.4 118.4,96.9 111.6,94.7 103.9,95.7 97.1,93.9 90.1,92.9 83.3,90.5 79.3,88.3  " />
        </g>
        <g class="layer-4">
            <polyline class="top" fill="none" stroke="#B61879" stroke-miterlimit="10" points="93.4,134.9 102.8,131.3 112.5,133.2    121.9,133.3 130.7,136.3 138.9,140.5 148.2,142 155.1,148.5 161.6,156.8 171.3,156.8 181.9,153.7 190.6,155.4 200.5,165.8    210.7,158.4 218.8,154.1 228.4,154.4 235,147.3 244.6,147.1 250.8,138.4 260.7,139.8 268.7,134.1 278.7,141.2 287,138.5    293.9,143.1 305.1,136.1 311.7,143.4 320,141.9 330,146.6 338.6,142.8 347.7,142.7 356.8,143.4 365.6,132.9 374.9,135.3 383.9,140    392.5,144.4 402.7,137.8 411,143.3 421.4,140.1 428.3,142.4 436.2,144.5 443.5,141.2 451.8,139.3 458.6,134.5 466.1,125.4    475.7,123.1 483.4,121.9 493.7,122.1 496.4,132.3 505.3,135.3 512.5,140.6 522.9,137.7 529.3,148.7 538.6,144.7 548.4,147.2    556.9,149.4 565.1,142.6 573.7,145.1 581.8,141.9 591.1,145.1 596.6,133.3 604.6,131.6 616.2,138.8 625.6,139 635.6,141.5    645,136.7 652.5,142.7 660.8,143.4 668.8,139.1 675.9,135.8 683.7,132.5 691.5,127.2 701.5,130.1 709.9,126.7 718.6,131.8    727.4,129 735.1,135.2 743.9,134.7 754.4,130 760.9,138.3 769.8,135.1 778.6,131.3 789.4,130.9 798.8,139.7 809.4,134.7    817.4,141.4 826.8,139.9 835.6,145.5 845,135.5 854.1,145.5 862.9,137.1 871.6,145.2 877.7,147.6 887.7,149.4  " />
            <polyline class="left" fill="none" stroke="#B61879" stroke-miterlimit="10" points="111.9,1228.9 110,1220.3 101.6,1210    108.7,1202.5 106.8,1191.6 111.1,1183.4 118.1,1176.7 125.1,1170.9 130.7,1164.1 138.9,1158.1 133.5,1146.7 137.2,1139    136.5,1130.5 140.8,1121.6 141.1,1112.5 142.6,1102.7 134.9,1095.6 132.6,1086.9 127.8,1079.3 124,1071.2 120.3,1063.1    118.7,1056.2 116.7,1047.3 121.9,1039.8 126.3,1032.1 133.5,1025.3 126.4,1013.8 131.4,1006.3 140.1,999.6 134.9,989.7    141.3,981.5 138.6,972.8 137.3,964 135.1,954.9 129.4,947.5 117.8,946.1 119.1,935 114.4,928.2 108.9,920.9 107.4,912.3    115.1,904.4 108.9,893.2 115.9,885.6 124.6,879.5 123.9,868.5 126.7,859.8 125.9,850.9 121.4,845.3 121.4,835.5 119.4,826    116.9,816.7 112.7,807.5 118.9,799.3 121.1,790.7 121.8,781.5 121.2,773.1 112.2,769.3 106.7,764.6 104.9,752.5 98.9,746.2    93.5,739.6 85.5,734.1 90.2,724.8 81.7,714.3 89.4,707.4 97.9,702.8 107.1,701.2 113.7,694.1 120.7,688.7 120,680.3 129.9,671.5    121.9,663.8 119.4,654.8 122,645.6 124.5,636.7 119.3,627 128,618.2 123.9,610.5 112.5,605.9 113.8,594.5 109.3,588.4 116,582.8    114.4,571.9 122.2,563.8 116.7,554.7 116.4,544.9 106.2,539.2 106.4,529 104.4,519.8 110.6,514 113.4,506 121,502.1 127.3,495.6    132.6,487.9 123.9,483.2 125.2,471.7 114.1,468.4 114.3,458.2 106.6,452 106.8,442.6 102.7,434.5 101.1,425.6 106.6,417.2    103.9,407.7 112.6,402 109.6,389.8 122.6,389.1 125.2,379.5 127.2,369.5 138.3,363.9 139.2,353.7 136.7,343 146.1,336 146.9,326.5    143.3,316.8 150.6,307.5 148.8,297.9 148.3,288.2 143.2,279.6 135.6,272.5 130.5,265 131.5,253.8 120.3,250.6 113.8,242.6    112.5,231.1 109.1,222.8 107.7,213.6 114.4,205.1 106.2,195.9 104.2,187.5 110.1,177.5 99.8,172.3 99.8,162.3 99.1,153.8 97.3,147    93.4,138.9 93.4,134.9  " />
            <polyline class="bottom" fill="none" stroke="#B61879" stroke-miterlimit="10" points="910.7,1220 899,1219.4 893.6,1229.2    884.3,1231.1 873.7,1225 866.4,1236 857,1232.3 847.9,1229.3 839.1,1233.4 830.1,1235.7 821.2,1233 812.2,1233.9 803.8,1227.7    794.3,1224.9 784,1221.9 772.7,1225.8 763.9,1223.3 758.4,1210.5 748,1212.5 738.5,1212.7 729.3,1214 720.4,1204.4 711.2,1209.6    701.9,1207.7 695.5,1216.7 687.8,1220 679.7,1222.9 672.7,1228.4 661,1223.9 653.4,1226.7 644.5,1231.9 637.1,1224 628.6,1221.2    619.9,1217.9 609,1218.7 599.3,1218.3 592.4,1207.8 580.5,1211.5 572.1,1208.7 562.9,1209.6 554.3,1208.2 545.7,1206.5    537.2,1203.6 528.3,1206.4 519.7,1204.6 510.6,1198.6 502.3,1205.1 494,1207.8 485.5,1209 476.9,1213.1 469.2,1214.7 460.6,1217.6    453.2,1222.4 446.7,1227.7 439.4,1230.4 433.2,1232.7 424.7,1238 414.4,1237.3 406.8,1231.3 401.1,1223.3 397,1213.8 387.2,1211.3    377.6,1209.4 372.4,1199.9 361.9,1195.6 351.6,1202.2 343.7,1193.2 334.5,1192.7 325.3,1192.7 318,1202.8 307,1196.3 301.7,1207.5    293.9,1210.9 285,1212.9 278,1218.4 273,1225.7 261.1,1225.1 252.5,1232 242.6,1234.1 233.3,1231.3 225.3,1224.8 217.5,1219.4    207.9,1219.5 199.1,1217.3 189.7,1218.1 181.2,1213.7 171.8,1210.9 163.6,1217.3 155.7,1222.4 147.1,1225.8 135.5,1223.6    130.9,1235.1 119.3,1229.4 111.9,1228.9  " />
            <polyline class="right" fill="none" stroke="#B61879" stroke-miterlimit="10" points="887.7,149.4 885.4,159 888.2,167.5    886.5,178.1 881.8,186 885.8,195.4 880.9,204.5 886.2,212.5 891.9,219.1 894.6,228.2 896.2,235.3 898,245.2 891.1,252.4    895.6,260.9 890.2,270.7 897.9,278 898.8,286.9 896.2,296.4 902.5,305.1 898.3,315.3 888.1,319.5 892.2,331.8 881.2,335.3    880.9,344.7 873.7,351.6 878.6,360.5 883.9,366.7 882.4,380.3 895.4,380.2 898.4,391.6 909.3,393.5 915.2,400.5 913.1,409.7    918.3,418.9 908.3,424.1 901.7,428 896.3,435.6 889.2,440.9 889,452.4 881.2,457 872.2,461.7 867.4,469.5 863.8,477.9 872.1,489    869.4,496.7 870.8,504.7 864.5,514 867.9,522.9 872.7,531.4 872.6,541.1 876.4,550 870.4,559.6 873.8,570.8 884.1,575.1    884.4,584.5 892.4,588.3 895.4,597 903.6,601.1 905.8,609.9 911.7,618.3 906.2,625.9 895,626.1 889.6,633.3 883.2,639.6    875.4,646.1 882.7,653.8 884.9,663.7 890.7,671.2 895,679.7 900.9,688.2 892.2,699 900,707.9 895.8,717 892.5,725.8 895.3,736.3    892.9,744.7 887.3,753.7 890.2,762.8 885,770.7 888.8,780.7 878.7,786.7 876.4,795 870,802.7 869.9,810.1 881.1,818.9 876.9,831    886.2,836.8 888.6,847.5 891.9,857.6 891.9,866.2 884.7,872.9 890.6,883.9 885.4,891.1 879.5,898.2 873.6,906 873.2,915.2    876.5,924.2 878.5,932.8 882.9,941.6 882.3,953.3 894.6,958 895.6,967.7 893.7,977.2 894.4,986.7 885.3,994.1 888.1,1004.2    883,1012.1 878,1019.7 875.8,1028.7 877.5,1039.6 866.4,1044.4 869,1054.9 859.5,1061.4 859.7,1070.7 863.6,1079.6 858.5,1089.2    863.8,1097.3 868.6,1105 867.7,1115 870.9,1123.5 880,1128.5 880.6,1138.8 890.1,1142.7 897.7,1155 890.8,1165.6 895.3,1175.1    900.6,1183.2 902.7,1191.7 903.8,1201.4 907.1,1208.4 910.7,1220  " />
        </g>
        <g class="layer-5" opacity="0.7">
            <polyline class="top" opacity="0.7" fill="none" stroke="#B61879" stroke-miterlimit="10" points="136.5,150.9 150.3,152    163.1,153.8 173.9,161 185.5,165.9 196.2,173 202.5,178 212.7,182.7 224.9,184.5 236.9,175.1 248.9,180.5 259.3,173 270.2,170    282.9,169.9 289.3,157.9 303.1,158 312.1,150 324.4,147.8 336.9,146.3 348.7,154.2 360.7,154.8 372.5,158.2 384.4,160.5    397.4,158.4 410.2,156.1 421.7,162 440.7,161.7 448.6,155.8 458.4,147.8 470.3,154.3 481.3,153.3 493.5,149.4 503.4,157.3    514.5,158.1 525.3,163.5 535.6,170.4 541.8,181.3 551.5,188.6 562,194.2 573.5,195.6 588.1,197.3 598.1,184.7 610.4,190.4    618.5,178.1 630.1,174.5 641,169.2 650.7,161.6 661.4,154.1 675,153.5 687.8,148.5 701.8,152.6 714.9,155.4 726.2,148 735.5,160    747,163.7 760.7,162 771.3,169.1 783.4,167.2 795.4,168.2 805.7,162.8 815.2,156.1 827.3,157.2 837.7,154.4 842.3,149.4  " />
            <polyline class="left" opacity="0.7" fill="none" stroke="#B61879" stroke-miterlimit="10" points="136.9,1214.4 136.2,1203.2    132.1,1192.2 128.4,1179.5 135.3,1168.5 132,1156 133.2,1144.9 135.8,1137.1 138,1127.3 129.4,1119.4 126.4,1110.2 135.7,1099.1    136.4,1088.9 133.2,1077.3 135.1,1065.6 142.6,1055.4 146.2,1044.1 142.4,1031 145.3,1019.6 154.3,1009.4 152,997 151.7,985.2    160.2,974.1 158.3,962.1 152.9,950.5 153.1,938.8 153.9,926.7 149.5,915.6 143.5,905.5 140.2,894.1 133.6,884.3 130.2,872.3    129.3,860.3 125.3,849.1 119.6,836.5 128.7,825.5 133.7,814.6 130.3,800.4 139.3,790.9 144.2,779.7 149.1,768.5 156.3,759.9    157.7,748.1 156.9,735.6 146.7,725.4 151.3,711.7 142.5,701.2 139.6,689.2 143,676.1 140.8,664.2 134.4,652.7 137.9,640.1    138.8,628.1 135.6,616 129.4,603.2 135.3,591.5 141.8,580.5 143.5,568.3 151.2,558.6 153.4,546.2 160.3,536 159.6,523.5 157.7,512    164.2,499.3 160.3,487.6 153.3,477.4 146.7,467.4 141.2,457 133.1,448 135.2,433.8 132,422.5 130.9,410.9 128.1,399.1 131.6,387.6    128.1,374.2 138.4,365 141.2,353.1 142.7,340 150.7,330.5 160.9,323 160.7,312.2 168.6,303.4 170.1,295.9 175.4,286 178.9,275.7    175.8,270.1 172.6,256.4 161.6,249.7 157.1,237.9 154.1,226.2 150.4,214.8 140.4,209.4 138.4,195.6 132.4,183.8 126.2,171.2    133.4,159.1 136.5,150.9  " />
            <polyline class="bottom" opacity="0.7" fill="none" stroke="#B61879" stroke-miterlimit="10" points="875.3,1187 864.6,1195.7    856.7,1199.8 845.8,1208.6 836.4,1197.8 824.5,1196.3 813.6,1192 801.9,1190.9 790.6,1187.6 778.9,1187.1 767.2,1192.7    755.3,1183.1 744.6,1191.6 732.5,1190.7 723.8,1200.5 709.6,1197.1 702.3,1207.9 689.2,1208.5 678.7,1219.6 666.4,1209.4    654.2,1209.9 642.6,1206.1 629.2,1206 618.8,1198.8 608.9,1190.7 597.7,1184.9 586,1182.3 573.6,1186.4 562.8,1176.4 550.7,1176.7    539.9,1184.9 527.7,1183.4 516,1185.7 507.7,1195.6 495.5,1197.8 490.1,1209.7 474.7,1213.2 465.6,1223 451.4,1228.4 441.1,1222.6    429,1221.6 419.2,1214.8 408.2,1211.4 399.6,1200.8 386.3,1204.5 377,1193.9 364.7,1195.5 355.8,1189.8 345.4,1186.4 337.1,1173.2    324.1,1177.7 310.7,1174.9 301.1,1184.4 292.1,1192.7 281.7,1198.9 268.1,1201.3 263,1214.9 246.6,1217.6 234.2,1218.2    221.8,1216.9 210,1213 197.8,1211.7 185.8,1207.2 173,1207.4 160.3,1210.4 153.8,1215.2 145.2,1213 136.9,1214.4  " />
            <polyline class="right" opacity="0.7" fill="none" stroke="#B61879" stroke-miterlimit="10" points="842.3,149.4 851.7,160.9    858.5,172.9 866.3,178.6 867.6,193.5 867.3,208.5 856.6,216.5 858.8,229.7 852.2,239.7 845.8,250.2 849.4,262.7 842.3,273.6    843.2,285.5 845.3,297.2 852.5,307.8 854.5,318.8 856.6,329.9 857.2,342.2 865.5,351.5 865.7,363.7 872.2,374.3 868.5,386.5    869.5,397.9 868.3,409.3 862.6,419.4 858.3,429.8 862.7,443.2 860.3,458.4 866.3,467.8 868.4,479.2 863.6,490.5 862.9,501.7    862.1,513 864.8,525.3 858.5,535.4 854.2,545.9 848.4,556 845.1,565.9 847.9,575.7 849,588.7 855.2,600.1 862.2,610.9 874.1,617.7    878.8,630.5 880.4,639.8 875.4,648.2 871,659.2 867.4,671.9 861.1,682.9 864.9,695 857.9,705.1 866.6,717 868.4,731.4 869.5,741    867.8,753.5 864.3,765.6 866.6,779.1 857.5,790.4 860.2,803.4 864.9,815.2 870.1,825.9 869.4,834.2 871.9,842.8 868.5,854.3    864.1,865.2 858.7,876.1 851.7,887.3 859,899.8 858.5,911.5 854.8,924.1 860.9,935.1 865.2,946.2 872.2,956 867.3,969.5    875.1,980.7 872.5,992.5 865,1002.3 858.2,1011.9 857.6,1024.4 854.4,1035.5 849.8,1046 843.1,1057.6 845.1,1070.3 845.1,1082.8    845.1,1095.5 848.6,1107.5 850.5,1119.8 859.3,1130.5 856.1,1143.7 858.7,1155.8 865.5,1162.6 862.8,1177 875.3,1187  " />
        </g>
    </g>
    <!-- <radialGradient id="flash_gradient"><stop offset="10%" stop-color="white" /><stop offset="40%" stop-color="white" stop-opacity="0.5" /><stop offset="60%" stop-color="white" stop-opacity="0" /></radialGradient> -->

    <!-- <linearGradient id="flash_1_gradient" x1="-50%" y1="-50%" x2="100%" y2="100%">
        <stop offset="0%" stop-color="white" />
        <stop offset="100%" stop-color="white" stop-opacity="0" />
    </linearGradient>
    <linearGradient id="flash_2_gradient" x1="0%" y1="0%" x2="150%" y2="150%">
        <stop offset="0%" stop-color="white" stop-opacity="0" />
        <stop offset="100%" stop-color="white" />
    </linearGradient> -->
    <!-- <rect fill="url(#flash_1_gradient)" class="flash-1" width="100%" height="100%" />
    <rect fill="url(#flash_2_gradient)" class="flash-2" width="100%" height="100%" /> -->
    <g class="card">
        <image width="1830" height="2750" xlink:href="card.png" transform="matrix(0.3636 0 0 0.3636 167.2727 181.9895)"></image>
    </g>	
    <!--<image width="603" height="166" class="ribbon" xlink:href="ribbon.png" transform="matrix(1 0 0 1 201.0937 21.8121)"></image>-->
</svg>