<?xml version="1.0" encoding="utf-8"?>
<!-- Generator: Adobe Illustrator 23.0.3, SVG Export Plug-In . SVG Version: 6.00 Build 0)  -->
<svg version="1.1" id="Capa_1" xmlns="http://www.w3.org/2000/svg" xmlns:xlink="http://www.w3.org/1999/xlink" x="0px" y="0px"
	 viewBox="0 0 56.9 56.9" style="enable-background:new 0 0 56.9 56.9;" xml:space="preserve">
<style type="text/css">
	.st0{fill:#A1A1E5;}
</style>
<g>
	<path class="st0" d="M51.2,7.1c0-3.1-2.5-5.7-5.6-5.7l0,0H11.3c-3.1,0-5.7,2.5-5.7,5.7v47.2l17.7-11.8L41,54.3V24.6h10.2V7.1z
		 M39.1,50.8L23.3,40.3L7.5,50.8V7.1c0-2.1,1.8-3.8,3.8-3.8h29.7c-0.9,0.9-1.6,2-1.9,3.3l0,0c0,0.2,0,0.5,0,0.7c0,0.2,0,0.5,0,0.7
		v16.7L39.1,50.8L39.1,50.8z M49.4,22.8H41V7.9c0-0.3,0-0.7,0.1-0.9c0.4-1.8,1.8-3.2,3.4-3.6h0.1c0.3,0,0.6-0.1,0.7-0.1
		c0.1,0,0.2,0,0.2,0c2,0,3.8,1.8,3.8,3.8C49.4,7.1,49.4,22.8,49.4,22.8z"/>
	<path class="st0" d="M4.3,56.9V7.1C4.3,3.2,7.4,0,11.3,0h34.3c3.8,0,7,3.2,7,7.1v19H42.4v30.9L23.3,44.2L4.3,56.9z M23.3,38.6
		l14.5,9.6l0-41.9c0.1-0.6,0.3-1.1,0.6-1.7H11.3c-1.3,0-2.4,1.1-2.4,2.4v41.1L23.3,38.6z M42.4,21.4H48V7.1c0-1.3-1.2-2.4-2.4-2.4
		l-0.2,0c-0.1,0-0.3,0.1-0.6,0.1c-1.1,0.4-2,1.4-2.3,2.5l0,0.2c0,0.1,0,0.4,0,0.5V21.4z"/>
</g>
</svg>
