<?xml version="1.0" standalone="no"?><!-- Generator: Gravit.io --><svg xmlns="http://www.w3.org/2000/svg" xmlns:xlink="http://www.w3.org/1999/xlink" style="isolation:isolate" viewBox="2577.443 1048.2 53.036 46.8" width="53.036" height="46.8"><path d=" M 2605.9 1062.8 C 2607.1 1060.4 2609.7 1058.7 2612.7 1058.7 C 2616.9 1058.7 2620.4 1062.1 2620.4 1066.4 C 2620.4 1066.6 2620.4 1066.9 2620.4 1067.1 C 2621.7 1067.8 2622.9 1068.7 2623.9 1069.7 C 2624.2 1068.7 2624.4 1067.5 2624.4 1066.4 C 2624.4 1059.9 2619.2 1054.7 2612.7 1054.7 C 2608.2 1054.7 2604.4 1057.2 2602.4 1060.8 C 2603.6 1061.4 2604.8 1062 2605.9 1062.8 Z  M 2613.6 1091 L 2595.3 1091 C 2591.5 1091 2587.9 1089.5 2585.3 1086.7 C 2582.6 1083.9 2581.3 1080.3 2581.5 1076.5 C 2581.8 1069.6 2587.4 1063.9 2594.2 1063.4 C 2594.6 1063.3 2594.9 1063.3 2595.3 1063.3 C 2599.9 1063.3 2604.2 1065.6 2606.8 1069.5 C 2607.4 1070.4 2608.5 1070.7 2609.5 1070.3 C 2611.1 1069.7 2612.7 1069.4 2614.4 1069.5 L 2614.4 1069.5 C 2619.8 1069.9 2624.2 1074.4 2624.4 1079.9 C 2624.5 1082.8 2623.4 1085.6 2621.4 1087.7 C 2619.3 1089.8 2616.6 1091 2613.6 1091 Z  M 2623.9 1069.7 C 2622.9 1068.7 2621.7 1067.8 2620.4 1067.1 C 2618.6 1066.2 2616.7 1065.6 2614.7 1065.5 L 2614.7 1065.5 C 2612.8 1065.4 2611 1065.6 2609.3 1066.1 C 2608.3 1064.9 2607.1 1063.8 2605.9 1062.8 C 2604.8 1062 2603.6 1061.4 2602.4 1060.8 C 2599.8 1059.7 2596.9 1059.2 2593.9 1059.4 C 2585.1 1060 2577.9 1067.5 2577.5 1076.3 C 2577.2 1081.2 2579 1085.9 2582.4 1089.5 C 2585.8 1093 2590.3 1095 2595.3 1095 L 2613.6 1095 C 2617.7 1095 2621.4 1093.4 2624.3 1090.5 C 2627.1 1087.6 2628.5 1083.8 2628.4 1079.7 C 2628.3 1075.8 2626.6 1072.3 2623.9 1069.7 Z  M 2600.9 1056.7 C 2601.5 1057.3 2602.4 1057.3 2603 1056.7 L 2603 1056.7 C 2603.6 1056.1 2603.6 1055.2 2603 1054.6 L 2602 1053.7 C 2601.5 1053.1 2600.5 1053.1 2599.9 1053.7 L 2599.9 1053.7 C 2599.3 1054.2 2599.3 1055.2 2599.9 1055.8 L 2600.9 1056.7 Z  M 2629 1064.9 L 2627.7 1064.9 C 2626.8 1064.9 2626.2 1065.6 2626.2 1066.4 L 2626.2 1066.4 C 2626.2 1067.2 2626.8 1067.9 2627.7 1067.9 L 2629 1067.9 C 2629.8 1067.9 2630.5 1067.2 2630.5 1066.4 L 2630.5 1066.4 C 2630.5 1065.6 2629.8 1064.9 2629 1064.9 Z  M 2624.9 1057.3 L 2626.2 1056.2 C 2626.8 1055.6 2626.9 1054.7 2626.4 1054.1 C 2625.8 1053.4 2624.9 1053.4 2624.2 1053.9 L 2622.9 1055.1 C 2622.3 1055.6 2622.2 1056.5 2622.7 1057.2 C 2623.3 1057.8 2624.2 1057.9 2624.9 1057.3 Z  M 2614.4 1052.7 L 2614.4 1052.7 C 2615.3 1052.7 2615.9 1052.1 2615.9 1051.2 L 2615.9 1049.7 C 2615.9 1048.9 2615.3 1048.2 2614.4 1048.2 L 2614.4 1048.2 C 2613.6 1048.2 2612.9 1048.9 2612.9 1049.7 L 2612.9 1051.2 C 2612.9 1052.1 2613.6 1052.7 2614.4 1052.7 Z " fill-rule="evenodd" fill="#fff"/></svg>