<?xml version="1.0" encoding="utf-8"?>
<!-- Generator: Adobe Illustrator 23.0.3, SVG Export Plug-In . SVG Version: 6.00 Build 0)  -->
<svg version="1.1" id="Layer_1" xmlns="http://www.w3.org/2000/svg" xmlns:xlink="http://www.w3.org/1999/xlink" x="0px" y="0px"
	 viewBox="0 0 56.9 56.9" style="enable-background:new 0 0 56.9 56.9;" xml:space="preserve">
<style type="text/css">
	.st0{fill:#A1A1E5;}
</style>
<g>
	<g>
		<path class="st0" d="M54.6,0H37.1c-1.3,0-2.3,1-2.3,2.3s1,2.3,2.3,2.3h15.1v15.1c0,1.3,1,2.3,2.3,2.3c1.3,0,2.3-1,2.3-2.3V2.3
			C56.9,1,55.8,0,54.6,0z"/>
	</g>
</g>
<g>
	<g>
		<path class="st0" d="M19.7,52.3H4.6V37.1c0-1.3-1-2.3-2.3-2.3c-1.3,0-2.3,1-2.3,2.3v17.4c0,1.3,1,2.3,2.3,2.3h17.4
			c1.3,0,2.3-1,2.3-2.3C22,53.3,21,52.3,19.7,52.3z"/>
	</g>
</g>
<g>
	<g>
		<path class="st0" d="M56.2,0.7c-0.9-0.9-2.4-0.9-3.2,0L32.6,21c-0.9,0.9-0.9,2.4,0,3.2c0.4,0.4,1,0.7,1.6,0.7
			c0.6,0,1.2-0.2,1.6-0.7L56.2,3.9C57.1,3,57.1,1.6,56.2,0.7z"/>
	</g>
</g>
<g>
	<g>
		<path class="st0" d="M24.3,32.6c-0.9-0.9-2.4-0.9-3.2,0L0.7,52.9c-0.9,0.9-0.9,2.4,0,3.2c0.4,0.4,1,0.7,1.6,0.7
			c0.6,0,1.2-0.2,1.6-0.7l20.3-20.3C25.1,35,25.1,33.5,24.3,32.6z"/>
	</g>
</g>
</svg>
