<?xml version="1.0" encoding="utf-8"?>
<!-- Generator: Adobe Illustrator 23.0.3, SVG Export Plug-In . SVG Version: 6.00 Build 0)  -->
<svg version="1.1" id="Layer_1" xmlns="http://www.w3.org/2000/svg" xmlns:xlink="http://www.w3.org/1999/xlink" x="0px" y="0px"
	 viewBox="0 0 56.9 56.9" style="enable-background:new 0 0 56.9 56.9;" xml:space="preserve">
<style type="text/css">
	.st0{fill:#A1A1E5;}
</style>
<g>
	<g>
		<path class="st0" d="M34.2,24.9h17.5c1.3,0,2.3-1,2.3-2.3c0-1.3-1-2.3-2.3-2.3H36.6V5.2c0-1.3-1-2.3-2.3-2.3S32,3.9,32,5.2v17.4
			C31.9,23.9,33,24.9,34.2,24.9z"/>
	</g>
</g>
<g>
	<g>
		<path class="st0" d="M5.2,36.4h15.1v15.2c0,1.3,1,2.3,2.3,2.3c1.3,0,2.3-1,2.3-2.3V34.2c0-1.3-1-2.3-2.3-2.3H5.2
			c-1.3,0-2.3,1-2.3,2.3C2.9,35.4,3.9,36.4,5.2,36.4z"/>
	</g>
</g>
<g>
	<g>
		<path class="st0" d="M32.6,24.2c0.9,0.9,2.4,0.9,3.2,0L56.2,3.9c0.9-0.9,0.9-2.4,0-3.2c-0.4-0.4-1-0.7-1.6-0.7S53.4,0.2,53,0.7
			L32.6,21C31.7,21.9,31.7,23.3,32.6,24.2z"/>
	</g>
</g>
<g>
	<g>
		<path class="st0" d="M0.6,56.1C1.5,57,3,57,3.8,56.1l20.4-20.3c0.9-0.9,0.9-2.4,0-3.2c-0.4-0.4-1-0.7-1.6-0.7
			c-0.6,0-1.2,0.2-1.6,0.7L0.7,52.9C-0.2,53.7-0.2,55.2,0.6,56.1z"/>
	</g>
</g>
</svg>
