<?xml version="1.0" encoding="utf-8"?>
<!-- Generator: Adobe Illustrator 23.0.3, SVG Export Plug-In . SVG Version: 6.00 Build 0)  -->
<svg version="1.1" id="Layer_1" xmlns="http://www.w3.org/2000/svg" xmlns:xlink="http://www.w3.org/1999/xlink" x="0px" y="0px"
	 viewBox="0 0 788 788" style="enable-background:new 0 0 788 788;" xml:space="preserve">
<style type="text/css">
	.st0{fill:#FFFFFF;}
	.st1{fill:#F7941D;}
</style>
<title>12-bitcoin-cash-square-crop</title>
<g>
	<circle class="st0" cx="394" cy="394" r="394"/>
	<circle class="st1" cx="394" cy="394" r="318.4"/>
	<path class="st0" d="M543.4,407.2l-0.2-0.3l0-0.1c-0.1-0.3-0.2-0.7-0.3-1l0,0l0,0l0,0l0,0l0,0l0,0l0-0.1
		c-3.7-12.5-11.1-23.6-21.3-31.8l0,0c-0.3-0.2-0.6-0.5-0.9-0.7l-0.4-0.3l-0.3-0.2l-0.1-0.1l-0.3-0.2l-0.1-0.1l-0.3-0.2l-0.1-0.1
		l-0.3-0.2l-0.2-0.1l-0.3-0.2l-0.2-0.1l-0.3-0.2l-0.2-0.1l-0.2-0.3l-0.2-0.1l-0.3-0.2l-0.2-0.1l-0.3-0.2l-0.2-0.1l-0.3-0.2l-0.2-0.1
		l-0.3-0.2l-0.2-0.1l-0.4-0.2l-0.2-0.1l-0.4-0.2l-0.2-0.1l-0.4-0.2l-0.2-0.1l-0.4-0.2l-0.2-0.1l-0.4-0.2l-0.2-0.1l-0.4-0.2l-0.2-0.1
		l-0.4-0.2l-0.2-0.1l-0.4-0.2l-0.2-0.1l-0.4-0.2l-0.2-0.1l-0.4-0.2l-0.2-0.1l-0.4-0.2l-0.2-0.1l-0.4-0.2l-0.3-0.2l0,0
		c-0.2-0.1-0.4-0.2-0.7-0.4c-9.1-4.7-18.9-7.8-29.1-9.2c2.8-3.1,5.4-6.3,7.8-9.8l0.4-0.6l0,0l0.2-0.3l0.2-0.4l0.1-0.2l0.2-0.4
		l0.1-0.2l0.2-0.4l0.1-0.2l0.2-0.4l0.1-0.2l0.2-0.4l0.1-0.2l0.2-0.4l0.1-0.2l0.2-0.4l0.1-0.2l0.2-0.4l0.1-0.2l0.2-0.4l0.1-0.2
		l0.2-0.3l0.1-0.2l0.2-0.3l0.1-0.2l0.2-0.3l0.1-0.2l0.2-0.3l0.1-0.2l0.2-0.3l0.1-0.2l0.2-0.3l0.1-0.2l0.2-0.3l0.1-0.1l0.2-0.3
		l0.1-0.1l0.2-0.3l0.1-0.1l0.2-0.3l0.1-0.1l0.1-0.3l0.1-0.1l0.1-0.3l0.1-0.1l0.1-0.3l0.1-0.1l0.1-0.3l0.2-0.4c0.1-0.3,0.3-0.6,0.4-1
		l0,0c4.4-10.8,5.4-22.6,2.9-33.9l0,0l0-0.1l0,0l0,0l0,0l0,0l0,0l0,0c-0.1-0.3-0.1-0.6-0.2-0.9v-0.1l0,0l0,0l0,0l0,0l-0.1-0.2
		c-0.1-0.4-0.2-0.9-0.3-1.3c-0.1-0.4-0.2-0.9-0.4-1.3l-0.2-0.3l0-0.1c-0.1-0.3-0.2-0.6-0.3-0.9l0,0l0,0l0,0l0,0l0,0l0,0l0,0
		c-3.3-11.1-9.9-21-18.9-28.3l0,0c-0.3-0.2-0.5-0.4-0.8-0.6l-0.4-0.3l-0.3-0.2l-0.1-0.1l-0.2-0.2l-0.1-0.1l-0.2-0.2l-0.1-0.1
		l-0.3-0.2l-0.1-0.1l-0.3-0.2l-0.1-0.1l-0.3-0.2l-0.1-0.1l-0.3-0.2l-0.2-0.1l-0.3-0.2l-0.2-0.1l-0.3-0.2l-0.2-0.1l-0.3-0.2l-0.2-0.1
		l-0.3-0.2l-0.2-0.1l-0.3-0.2l-0.2-0.1l-0.3-0.2l-0.2-0.1l-0.3-0.2l-0.2-0.1l-0.3-0.2l-0.2-0.1l-0.4-0.2l-0.2-0.1l-0.4-0.2l-0.2-0.1
		l-0.4-0.2l-0.2-0.1l-0.4-0.2l-0.2-0.1l-0.4-0.2l-0.2-0.1l-0.4-0.2l-0.2-0.1l-0.4-0.2l-0.2-0.1l-0.4-0.2l-0.3-0.1l0,0l-0.6-0.3
		c-17.4-9-39.5-11.8-61.7-6.1l-5.8,1.5l-14.7-56.9l-33.9,8.7l14.5,56.7l-27.1,7l-14.6-56.5l-33.9,8.7l14.6,56.7l-69.9,18l9.3,36.1
		l28.2-7.2c9.3-2.4,18.8,3.2,21.2,12.5c0,0,0,0,0,0l0,0l0,0l39.1,152.1c1.6,6.2-2.1,12.6-8.4,14.2l-24.7,6.3l1.4,43l69.8-17.9
		l14.8,56.6l33.9-8.7l-14.6-56.8l27.1-7l14.6,56.7l33.9-8.7l-14.6-57c5.7-1.5,10.7-2.8,14.1-3.7c25-6.4,45.3-21.1,57.6-39.4l0.4-0.6
		l0,0l0.2-0.3l0.3-0.4l0.1-0.2l0.3-0.4l0.1-0.2l0.2-0.4l0.1-0.2l0.2-0.4l0.1-0.2l0.2-0.4l0.1-0.2l0.2-0.4l0.1-0.2l0.2-0.4l0.1-0.2
		l0.2-0.4l0.1-0.2l0.2-0.4l0.1-0.2l0.2-0.4l0.1-0.2l0.2-0.4l0.1-0.2l0.2-0.4l0.1-0.2l0.2-0.4l0.1-0.2l0.2-0.4l0.1-0.2l0.2-0.3
		l0.1-0.2l0.2-0.3l0.1-0.2l0.2-0.3l0.1-0.2l0.2-0.3l0.1-0.2l0.2-0.3l0.1-0.2l0.2-0.3l0.1-0.2l0.1-0.3l0.1-0.2l0.1-0.3l0.1-0.1
		l0.2-0.4l0.2-0.5c0.2-0.4,0.3-0.7,0.5-1.1l0,0c4.9-12.1,6.1-25.4,3.3-38.2l0,0l0,0l0,0l0,0l0,0l0,0l0,0l0,0l-0.2-1v-0.1l0,0l0,0
		l0,0l0,0l0,0l0,0l0,0l0,0l0,0l0,0l0,0l0,0l0,0l-0.1-0.1c-0.1-0.5-0.2-1-0.4-1.5C543.5,408.3,543.4,407.8,543.4,407.2z M344.2,305.5
		c5.8-1.5,29.7-7.5,37.6-9.5c12.5-3.2,24.9-2,34.5,2.7l0.3,0.1l0,0l0.1,0.1l0.2,0.1l0.1,0.1l0.2,0.1l0.1,0.1l0.2,0.1l0.1,0.1
		l0.2,0.1l0.1,0.1l0.2,0.1l0.1,0.1l0.2,0.1l0.1,0.1l0.2,0.1l0.1,0.1l0.2,0.1l0.1,0.1l0.2,0.1l0.1,0.1l0.2,0.1l0.1,0.1l0.2,0.1
		l0.1,0.1l0.2,0.1l0.1,0.1l0.2,0.1l0.1,0.1l0.2,0.1l0.1,0.1l0.2,0.1l0.1,0.1l0.2,0.1l0.1,0.1l0.2,0.1l0.1,0.1l0.2,0.1l0.1,0l0.2,0.1
		l0.1,0l0.2,0.1l0.1,0l0.2,0.1l0.1,0l0.1,0.1l0.1,0l0.2,0.1l0.2,0.1c0.2,0.1,0.3,0.2,0.5,0.3l0,0c4.9,3.7,8.6,8.9,10.4,14.8l0,0
		l0,0.1c0,0.2,0.1,0.3,0.2,0.5l0,0l0.1,0.2c0.1,0.2,0.1,0.5,0.2,0.7c0.1,0.3,0.1,0.5,0.1,0.8l0.1,0.2l0,0c0,0.2,0.1,0.3,0.1,0.5
		l0,0.1l0,0c1.3,6.1,0.6,12.3-1.9,18l0,0l-0.2,0.5l-0.1,0.2l-0.1,0.2l0,0.1l-0.1,0.1l0,0.1L432,340l0,0.1l-0.1,0.2l0,0.1l-0.1,0.2
		l0,0.1l-0.1,0.2l0,0.1l-0.1,0.2l0,0.1l-0.1,0.2l-0.1,0.1l-0.1,0.2l-0.1,0.1l-0.1,0.2l-0.1,0.1l-0.1,0.2l-0.1,0.1l-0.1,0.2l-0.1,0.1
		l-0.1,0.2l-0.1,0.1l-0.1,0.2l-0.1,0.1l-0.1,0.2l-0.1,0.1l-0.1,0.2l-0.1,0.1l-0.1,0.2l-0.1,0.1l-0.1,0.2l-0.1,0.1l-0.1,0.2l-0.1,0.1
		l-0.1,0.2l-0.1,0.1l-0.1,0.2l-0.1,0.1l-0.1,0.2l-0.1,0.1l-0.1,0.2l-0.1,0.1l0,0l-0.2,0.3c-6.2,8.7-16.4,15.8-29,19
		c-7.9,2-31.7,8.3-37.5,9.8L344.2,305.5z M476.7,422.1l0.1,0.2l0,0c0,0.2,0.1,0.3,0.1,0.5l0,0l0,0l0,0l0,0l0,0l0,0l0,0
		c1.3,6.7,0.4,13.6-2.7,19.7l0,0l-0.3,0.6l-0.1,0.3l-0.1,0.2l-0.1,0.1l-0.1,0.2l-0.1,0.1l-0.1,0.2l-0.1,0.1l-0.1,0.2l-0.1,0.1
		l-0.1,0.2l-0.1,0.1l-0.1,0.2l-0.1,0.1l-0.1,0.2l-0.1,0.1l-0.1,0.2l-0.1,0.1l-0.1,0.2l-0.1,0.1l-0.1,0.2l-0.1,0.1l-0.1,0.2l-0.1,0.1
		l-0.1,0.2l-0.1,0.1l-0.1,0.2l-0.1,0.1l-0.1,0.2l-0.1,0.1l-0.1,0.2l-0.1,0.1l-0.1,0.2l-0.1,0.1l-0.1,0.2l-0.1,0.1l-0.1,0.2l-0.1,0.1
		l-0.2,0.2l-0.1,0.1l-0.2,0.2l-0.1,0.1l-0.2,0.2l-0.1,0.1l-0.2,0.2l-0.1,0.1l-0.2,0.2l-0.1,0.1l0,0l-0.3,0.3
		c-7.6,9.7-19.8,17.6-34.6,21.4c-9.3,2.4-37.6,9.8-44.5,11.6l-19.2-74.8c6.9-1.8,35.2-8.9,44.5-11.3c14.8-3.8,29.4-2.7,40.6,2.1
		l0.4,0.2l0,0l0.2,0.1l0.3,0.1l0.1,0l0.2,0.1l0.1,0l0.2,0.1l0.1,0l0.2,0.1l0.1,0.1l0.2,0.1l0.1,0.1l0.2,0.1l0.1,0.1l0.2,0.1l0.1,0.1
		l0.2,0.1l0.1,0.1l0.2,0.1l0.1,0.1l0.2,0.1l0.1,0.1l0.2,0.1l0.1,0.1l0.2,0.1l0.1,0.1l0.2,0.1l0.1,0.1l0.2,0.1l0.1,0.1l0.2,0.1
		l0.1,0.1l0.2,0.1l0.1,0.1l0.2,0.1l0.1,0.1l0.2,0.1l0.1,0.1l0.2,0.1l0.1,0.1l0.2,0.1l0.1,0.1l0.2,0.1l0.1,0.1l0.2,0.1l0.1,0.1
		l0.2,0.1l0.2,0.2c0.2,0.1,0.4,0.2,0.5,0.3l0,0c5.7,3.8,9.9,9.4,11.9,16l0,0l0.1,0.1c0.1,0.2,0.1,0.3,0.2,0.5l0,0l0.1,0.2
		c0.1,0.2,0.1,0.5,0.2,0.8C476.7,421.4,476.7,421.7,476.7,422.1L476.7,422.1z"/>
</g>
</svg>
