<?xml version="1.0" encoding="utf-8"?>
<!-- Generator: Adobe Illustrator 23.0.3, SVG Export Plug-In . SVG Version: 6.00 Build 0)  -->
<svg version="1.1" id="Layer_1" xmlns="http://www.w3.org/2000/svg" xmlns:xlink="http://www.w3.org/1999/xlink" x="0px" y="0px"
	 viewBox="0 0 512 512" style="enable-background:new 0 0 512 512;" xml:space="preserve">
<style type="text/css">
	.st0{fill-rule:evenodd;clip-rule:evenodd;fill:#FFFFFF;}
</style>
<g>
	<rect x="89.4" y="251.3" class="st0" width="111.3" height="105.6"/>
	<rect x="89.4" y="145.3" class="st0" width="263.4" height="59"/>
	<rect x="232.7" y="327.4" class="st0" width="120.1" height="29.5"/>
	<rect x="232.7" y="250.8" class="st0" width="120.1" height="29.5"/>
	<path class="st0" d="M472.3,110.1h-52.8V80.6c0-8.8-7.8-16.6-17.1-16.6H39.2c-8.8,0-16,7.8-16,16.6v316.2
		c0,27.9,23.3,51.2,51.2,51.2h363.3c27.9-0.5,51.2-22.8,51.2-51.2V126.1C488.9,117.3,481.6,110.1,472.3,110.1z M74.4,414.4
		c-9.8,0-17.6-7.8-17.6-17.6V97.6h329.7v299.1c0,5.7,1,11.9,3.1,17.6H74.4z M455.2,396.8c0,9.8-7.8,17.6-18.1,17.6
		c-9.8,0-18.1-7.8-18.1-17.6V143.2h36.2V396.8z"/>
</g>
</svg>
