<?xml version="1.0" encoding="utf-8"?>
<!-- Generator: Adobe Illustrator 23.0.3, SVG Export Plug-In . SVG Version: 6.00 Build 0)  -->
<svg version="1.1" id="Layer_1" xmlns="http://www.w3.org/2000/svg" xmlns:xlink="http://www.w3.org/1999/xlink" x="0px" y="0px"
	 viewBox="0 0 410 500" style="enable-background:new 0 0 410 500;" xml:space="preserve">
<style type="text/css">
	.st0{fill:#312C6D;}
	.st1{fill:#211D49;}
	.st2{fill:#5249B6;}
	.st3{fill:#413A92;}
	.st4{fill:#9792D3;}
	.st5{fill:#DCDBF0;}
	.st6{fill:#BAB6E2;}
	.st7{fill:#746DC5;}
	.st8{fill:#FFFFFF;}
</style>
<g>
	<g>
		<path class="st0" d="M312.6,141.3c-10.3-11.2-26.2-26.3-33,7.8c-2.3,11.6-7.7,20.5-12.3,27.8c-5-25.2-20-51.3-34.1-68.9
			c-5.3-6.6-24-32.7-27.6-76.5c-0.5-6.5-8.3-9.6-13.1-5.2c-46.4,42.1-71.8,100-72.8,165.1c0,0-19.3-16.3-29.8-46.5
			c-2.8-8.2-13.8-9.7-18.5-2.5c-0.9,1.4-1.8,2.8-2.5,4.1c-35.8,63.3-53,140.1-37.1,211.5c26.6,119.7,202.5,153.1,295.7,77.9
			C418.6,362.3,389.7,225.4,312.6,141.3z"/>
		<g>
			<path class="st1" d="M56.6,365.5c-15.7-72.2,0.9-149.8,35.9-214c-0.9-2.1-1.7-4.3-2.5-6.6c-2.8-8.2-13.8-9.7-18.5-2.5
				c-0.9,1.4-1.8,2.8-2.5,4.1c-35.8,63.3-53,140.1-37.1,211.5c12.1,54.6,55.3,91.2,107.6,107.8C98.6,446.1,66.7,412.2,56.6,365.5z"
				/>
			<path class="st1" d="M144.6,190.2c1.9-59.1,23.3-112.2,61.6-152.9c-0.3-2.2-0.5-4.2-0.6-5.8c-0.5-6.6-8-9.9-12.9-5.5
				c-44.8,40.5-72.1,97.8-73.1,165.4l8.4,6.5c4.1,3.2,9.7,3.1,13.7,0.1C144.1,196.1,144.4,193.1,144.6,190.2z"/>
		</g>
		<path class="st2" d="M284.5,228.7c-7.6-8.3-19.4-19.4-24.4,5.8c-1.7,8.6-5.7,15.2-9.1,20.5c-3.7-18.6-14.7-37.9-25.2-50.9
			c-3.9-4.9-17.7-24.2-20.4-56.5c-0.4-4.8-6.1-7.1-9.7-3.8c-34.2,31.1-53,73.8-53.7,122c0,0-14.3-12-22-34.4
			c-2.1-6-10.2-7.2-13.7-1.8c-0.7,1-1.3,2-1.9,3C78,279.3,65.3,336.1,77.1,388.8c19.6,88.4,149.6,113.1,218.4,57.5
			C362.8,392,341.4,290.9,284.5,228.7z"/>
		<path class="st3" d="M101.6,395.8c-10.4-51.6,0.4-107,23.2-153.1c-1.7-3.4-3.4-7.2-4.8-11.3c-2.1-6-10.2-7.2-13.7-1.8
			c-0.7,1-1.3,2-1.9,3C78,279.3,65.3,336.1,77.1,388.8c9.1,41.1,42.1,68.4,81.7,80.3C130.7,455.1,108.5,430.3,101.6,395.8z"/>
		<path class="st4" d="M258.8,308.6c-5.1-5.6-13.1-13.2-16.5,3.9c-1.2,5.8-3.8,10.3-6.2,13.9c-2.5-12.6-10-25.6-17-34.4
			c-2.6-3.3-12-16.4-13.8-38.2c-0.3-3.3-4.1-4.8-6.6-2.6c-23.2,21-35.9,50-36.4,82.6c0,0-9.7-8.1-14.9-23.3
			c-1.4-4.1-6.9-4.9-9.2-1.2c-0.5,0.7-0.9,1.4-1.3,2.1c-17.9,31.6-26.5,70-18.5,105.8c13.3,59.8,101.3,76.6,147.8,39
			c15.9-12.9,25.8-31,27.8-51.1C297.1,374.4,285.4,337.7,258.8,308.6z"/>
		<path class="st5" d="M235,382.7c-2.9-3.1-7.3-7.3-9.2,2.2c-0.6,3.2-2.1,5.7-3.4,7.7c-1.4-7-5.6-14.3-9.5-19.2
			c-1.5-1.8-6.7-9.1-7.7-21.3c-0.1-1.8-2.3-2.7-3.7-1.4c-12.9,11.7-20,27.9-20.3,46c0,0-5.4-4.5-8.3-13c-0.8-2.3-3.8-2.7-5.2-0.7
			c-0.3,0.4-0.5,0.8-0.7,1.1c-10,17.6-14.8,39-10.3,58.9c10.1,45.4,92.8,44,97.9-6.8C256.3,419.4,249.8,398.9,235,382.7z"/>
		<path class="st6" d="M176,452.1c-4.4-17.8,0.4-36.9,10.3-52.7c0.2-0.3,0.4-0.7,0.7-1c1.3-1.8,4.4-1.4,5.2,0.6
			c2.9,7.5,8.3,11.6,8.3,11.6c0.2-13.3,5-25.5,13.9-35.2c-2-2.7-8.1-9.4-9.2-23.3c-0.1-1.8-2.3-2.7-3.7-1.4
			c-12.9,11.7-20,27.9-20.3,46c0,0-5.4-4.5-8.3-13c-0.8-2.3-3.8-2.7-5.2-0.7c-0.3,0.4-0.5,0.8-0.7,1.1c-10,17.6-14.8,39-10.3,58.9
			c4.1,18.5,20.9,29.5,39.6,32.2C186.3,470.4,178.5,462.6,176,452.1z"/>
		<path class="st3" d="M161.1,258.1c3.4-40.6,19-76.7,45-104.3c-0.3-2-0.5-4-0.7-6.2c-0.4-4.8-6.1-7.1-9.7-3.8
			c-27.1,24.6-44.6,56.6-51,92.8l0,0c-0.5,2.7-1.1,6.6-1.4,9.7c0,0,0,0,0,0c-0.8,6.4-1.2,12.9-1.3,19.6
			C142.7,265.9,159.1,274.4,161.1,258.1z"/>
		<g>
			<path class="st7" d="M142.4,425.5c-7.1-33.4-1-69,12.9-99.8c-2.7-3.8-5.7-8.9-7.9-15.2c-1.4-4.1-6.9-4.9-9.2-1.2
				c-0.5,0.7-0.9,1.4-1.3,2.1c-17.9,31.6-26.5,70-18.5,105.8c6.2,28,28.8,46.6,55.9,54.6C158.5,461.1,146.6,445.6,142.4,425.5z"/>
			<path class="st7" d="M187.9,319.1c2.3-16.8,9.2-35.2,20-50.6c-1.2-4.4-2.1-9.3-2.5-14.8c-0.3-3.3-4.1-4.8-6.6-2.6
				c-14.4,13.1-24.8,29.3-30.7,47.5l0,0c-0.9,2.9-2.2,7.6-3,11.3c0,0,0,0,0,0c-1.6,7.6-2.5,15.6-2.6,23.7
				C175.3,335.3,186,332.1,187.9,319.1z"/>
		</g>
	</g>
	<path class="st8" d="M204.1,500c-44.2-0.3-87.5-12.5-121.9-34.3c-38.9-24.8-64.5-60.2-73.9-102.4c-8.4-37.6-8.7-77.5-1-118.5
		c7.1-37.5,21.1-75.6,40.6-110.1c1-1.9,2.2-3.7,3.4-5.5c6.4-9.7,17-15.4,28.6-15.4c9.5,0,18.5,3.9,25,10.7
		c10.8-39.4,31-74.9,59.7-104.6c3.8-4,7.9-7.9,12-11.6C182.5,2.9,190,0,197.8,0c13.4,0,25.4,8.5,30,21.2c1,2.7,1.6,5.5,1.8,8.3
		l0,0.4c0.1,1,0.2,2.6,0.5,4.6l0.2,1.7c4.3,33.6,18.8,53,21.7,56.7c5.9,7.3,11.3,15.1,16.1,23.1c6.6-7.8,15.5-12,25.3-12
		c17.7,0,30.7,14.2,36.9,21c25.4,27.7,46,60.7,59.6,95.5c14.2,36.4,20.3,73.8,17.8,108.3c-3.8,51.1-26.3,94.6-65,125.9
		c-36.2,29.3-84.8,45.4-136.8,45.4c0,0-0.4,0-0.4,0C204.9,500,204.5,500,204.1,500z"/>
	<path class="st0" d="M312.6,141.3c-10.3-11.2-26.2-26.3-33,7.8c-2.3,11.6-7.7,20.5-12.3,27.8c-5-25.2-20-51.3-34.1-68.9
		c-5.3-6.6-24-32.7-27.6-76.5c-0.5-6.5-8.3-9.6-13.1-5.2c-46.4,42.1-71.8,100-72.8,165.1c0,0-19.3-16.3-29.8-46.5
		c-2.8-8.2-13.8-9.7-18.5-2.5c-0.9,1.4-1.8,2.8-2.5,4.1c-35.8,63.3-53,140.1-37.1,211.5c26.6,119.7,202.5,153.1,295.7,77.9
		C418.6,362.3,389.7,225.4,312.6,141.3z M56.6,365.5c-15.7-72.2,0.9-149.8,35.9-214c-0.9-2.1-1.7-4.3-2.5-6.6
		c-2.8-8.2-13.8-9.7-18.5-2.5c-0.9,1.4-1.8,2.8-2.5,4.1c-35.8,63.3-53,140.1-37.1,211.5c12.1,54.6,55.3,91.2,107.6,107.8
		C98.6,446.1,66.7,412.2,56.6,365.5z M144.6,190.2c1.9-59.1,23.3-112.2,61.6-152.9c-0.3-2.2-0.5-4.2-0.6-5.8
		c-0.5-6.6-8-9.9-12.9-5.5c-44.8,40.5-72.1,97.8-73.1,165.4l8.4,6.5c4.1,3.2,9.7,3.1,13.7,0.1C144.1,196.1,144.4,193.1,144.6,190.2z
		 M284.5,228.7c-7.6-8.3-19.4-19.4-24.4,5.8c-1.7,8.6-5.7,15.2-9.1,20.5c-3.7-18.6-14.7-37.9-25.2-50.9
		c-3.9-4.9-17.7-24.2-20.4-56.5c-0.4-4.8-6.1-7.1-9.7-3.8c-34.2,31.1-53,73.8-53.7,122c0,0-14.3-12-22-34.4
		c-2.1-6-10.2-7.2-13.7-1.8c-0.7,1-1.3,2-1.9,3C78,279.3,65.3,336.1,77.1,388.8c19.6,88.4,149.6,113.1,218.4,57.5
		C362.8,392,341.4,290.9,284.5,228.7z M101.6,395.8c-10.4-51.6,0.4-107,23.2-153.1c-1.7-3.4-3.4-7.2-4.8-11.3
		c-2.1-6-10.2-7.2-13.7-1.8c-0.7,1-1.3,2-1.9,3C78,279.3,65.3,336.1,77.1,388.8c9.1,41.1,42.1,68.4,81.7,80.3
		C130.7,455.1,108.5,430.3,101.6,395.8z M258.8,308.6c-5.1-5.6-13.1-13.2-16.5,3.9c-1.2,5.8-3.8,10.3-6.2,13.9
		c-2.5-12.6-10-25.6-17-34.4c-2.6-3.3-12-16.4-13.8-38.2c-0.3-3.3-4.1-4.8-6.6-2.6c-23.2,21-35.9,50-36.4,82.6
		c0,0-9.7-8.1-14.9-23.3c-1.4-4.1-6.9-4.9-9.2-1.2c-0.5,0.7-0.9,1.4-1.3,2.1c-17.9,31.6-26.5,70-18.5,105.8
		c13.3,59.8,101.3,76.6,147.8,39c15.9-12.9,25.8-31,27.8-51.1C297.1,374.4,285.4,337.7,258.8,308.6z M235,382.7
		c-2.9-3.1-7.3-7.3-9.2,2.2c-0.6,3.2-2.1,5.7-3.4,7.7c-1.4-7-5.6-14.3-9.5-19.2c-1.5-1.8-6.7-9.1-7.7-21.3c-0.1-1.8-2.3-2.7-3.7-1.4
		c-12.9,11.7-20,27.9-20.3,46c0,0-5.4-4.5-8.3-13c-0.8-2.3-3.8-2.7-5.2-0.7c-0.3,0.4-0.5,0.8-0.7,1.1c-10,17.6-14.8,39-10.3,58.9
		c10.1,45.4,92.8,44,97.9-6.8C256.3,419.4,249.8,398.9,235,382.7z M176,452.1c-4.4-17.8,0.4-36.9,10.3-52.7c0.2-0.3,0.4-0.7,0.7-1
		c1.3-1.8,4.4-1.4,5.2,0.6c2.9,7.5,8.3,11.6,8.3,11.6c0.2-13.3,5-25.5,13.9-35.2c-2-2.7-8.1-9.4-9.2-23.3c-0.1-1.8-2.3-2.7-3.7-1.4
		c-12.9,11.7-20,27.9-20.3,46c0,0-5.4-4.5-8.3-13c-0.8-2.3-3.8-2.7-5.2-0.7c-0.3,0.4-0.5,0.8-0.7,1.1c-10,17.6-14.8,39-10.3,58.9
		c4.1,18.5,20.9,29.5,39.6,32.2C186.3,470.4,178.5,462.6,176,452.1z M161.1,258.1c3.4-40.6,19-76.7,45-104.3c-0.3-2-0.5-4-0.7-6.2
		c-0.4-4.8-6.1-7.1-9.7-3.8c-27.1,24.6-44.6,56.6-51,92.8l0,0c-0.5,2.7-1.1,6.6-1.4,9.7c0,0,0,0,0,0c-0.8,6.4-1.2,12.9-1.3,19.6
		C142.7,265.9,159.1,274.4,161.1,258.1z M142.4,425.5c-7.1-33.4-1-69,12.9-99.8c-2.7-3.8-5.7-8.9-7.9-15.2c-1.4-4.1-6.9-4.9-9.2-1.2
		c-0.5,0.7-0.9,1.4-1.3,2.1c-17.9,31.6-26.5,70-18.5,105.8c6.2,28,28.8,46.6,55.9,54.6C158.5,461.1,146.6,445.6,142.4,425.5z
		 M187.9,319.1c2.3-16.8,9.2-35.2,20-50.6c-1.2-4.4-2.1-9.3-2.5-14.8c-0.3-3.3-4.1-4.8-6.6-2.6c-14.4,13.1-24.8,29.3-30.7,47.5l0,0
		c-0.9,2.9-2.2,7.6-3,11.3c0,0,0,0,0,0c-1.6,7.6-2.5,15.6-2.6,23.7C175.3,335.3,186,332.1,187.9,319.1z"/>
	<path class="st8" d="M204.2,490.4c-42.5-0.3-84-11.9-116.8-32.8c-36.8-23.4-60.8-56.7-69.6-96.4c-8.1-36.4-8.4-74.9-0.9-114.6
		C23.7,210,37.3,173,56.3,139.4c0.9-1.7,2-3.3,3-4.9c4.6-7,12.3-11.1,20.6-11.1c7.4,0,14.4,3.2,19.1,8.9c2,2.3,3.5,5,4.5,7.9
		c0.7,1.9,1.4,3.8,2.2,5.8l0.5,1.2c0.8,1.8,1.6,3.5,2.4,5.2c7.9-48.2,29.2-91.2,62.9-126c3.7-3.8,7.6-7.6,11.5-11.2
		c4.1-3.7,9.3-5.7,14.7-5.7c9.3,0,17.7,6,20.9,14.8c0.7,1.9,1.1,3.8,1.3,5.9l0,0.5c0.1,1,0.2,2.7,0.5,4.9l0.2,1.8
		c4.5,35.2,19.3,55.9,23.7,61.5c9.2,11.5,17.3,24.2,23.6,37.2c1.6-4.7,3.5-8.7,5.8-11.8c4.9-6.8,11.8-10.6,19.5-10.6
		c11.8,0,21.3,8.6,29.8,17.9c24.6,26.8,44.5,58.8,57.7,92.5c13.7,35,19.6,71,17.1,104c-3.6,48.4-24.9,89.6-61.5,119.1
		c-34.5,27.9-81,43.2-130.8,43.2c0,0-0.4,0-0.4,0C205,490.4,204.6,490.4,204.2,490.4z"/>
	<g>
		<path class="st0" d="M312.6,141.3c-10.3-11.2-26.2-26.3-33,7.8c-2.3,11.6-7.7,20.5-12.3,27.8c-5-25.2-20-51.3-34.1-68.9
			c-5.3-6.6-24-32.7-27.6-76.5c-0.5-6.5-8.3-9.6-13.1-5.2c-46.4,42.1-71.8,100-72.8,165.1c0,0-19.3-16.3-29.8-46.5
			c-2.8-8.2-13.8-9.7-18.5-2.5c-0.9,1.4-1.8,2.8-2.5,4.1c-35.8,63.3-53,140.1-37.1,211.5c26.6,119.7,202.5,153.1,295.7,77.9
			C418.6,362.3,389.7,225.4,312.6,141.3z"/>
		<g>
			<path class="st1" d="M56.6,365.5c-15.7-72.2,0.9-149.8,35.9-214c-0.9-2.1-1.7-4.3-2.5-6.6c-2.8-8.2-13.8-9.7-18.5-2.5
				c-0.9,1.4-1.8,2.8-2.5,4.1c-35.8,63.3-53,140.1-37.1,211.5c12.1,54.6,55.3,91.2,107.6,107.8C98.6,446.1,66.7,412.2,56.6,365.5z"
				/>
			<path class="st1" d="M144.6,190.2c1.9-59.1,23.3-112.2,61.6-152.9c-0.3-2.2-0.5-4.2-0.6-5.8c-0.5-6.6-8-9.9-12.9-5.5
				c-44.8,40.5-72.1,97.8-73.1,165.4l8.4,6.5c4.1,3.2,9.7,3.1,13.7,0.1C144.1,196.1,144.4,193.1,144.6,190.2z"/>
		</g>
		<path class="st2" d="M284.5,228.7c-7.6-8.3-19.4-19.4-24.4,5.8c-1.7,8.6-5.7,15.2-9.1,20.5c-3.7-18.6-14.7-37.9-25.2-50.9
			c-3.9-4.9-17.7-24.2-20.4-56.5c-0.4-4.8-6.1-7.1-9.7-3.8c-34.2,31.1-53,73.8-53.7,122c0,0-14.3-12-22-34.4
			c-2.1-6-10.2-7.2-13.7-1.8c-0.7,1-1.3,2-1.9,3C78,279.3,65.3,336.1,77.1,388.8c19.6,88.4,149.6,113.1,218.4,57.5
			C362.8,392,341.4,290.9,284.5,228.7z"/>
		<path class="st3" d="M101.6,395.8c-10.4-51.6,0.4-107,23.2-153.1c-1.7-3.4-3.4-7.2-4.8-11.3c-2.1-6-10.2-7.2-13.7-1.8
			c-0.7,1-1.3,2-1.9,3C78,279.3,65.3,336.1,77.1,388.8c9.1,41.1,42.1,68.4,81.7,80.3C130.7,455.1,108.5,430.3,101.6,395.8z"/>
		<path class="st4" d="M258.8,308.6c-5.1-5.6-13.1-13.2-16.5,3.9c-1.2,5.8-3.8,10.3-6.2,13.9c-2.5-12.6-10-25.6-17-34.4
			c-2.6-3.3-12-16.4-13.8-38.2c-0.3-3.3-4.1-4.8-6.6-2.6c-23.2,21-35.9,50-36.4,82.6c0,0-9.7-8.1-14.9-23.3
			c-1.4-4.1-6.9-4.9-9.2-1.2c-0.5,0.7-0.9,1.4-1.3,2.1c-17.9,31.6-26.5,70-18.5,105.8c13.3,59.8,101.3,76.6,147.8,39
			c15.9-12.9,25.8-31,27.8-51.1C297.1,374.4,285.4,337.7,258.8,308.6z"/>
		<path class="st5" d="M235,382.7c-2.9-3.1-7.3-7.3-9.2,2.2c-0.6,3.2-2.1,5.7-3.4,7.7c-1.4-7-5.6-14.3-9.5-19.2
			c-1.5-1.8-6.7-9.1-7.7-21.3c-0.1-1.8-2.3-2.7-3.7-1.4c-12.9,11.7-20,27.9-20.3,46c0,0-5.4-4.5-8.3-13c-0.8-2.3-3.8-2.7-5.2-0.7
			c-0.3,0.4-0.5,0.8-0.7,1.1c-10,17.6-14.8,39-10.3,58.9c10.1,45.4,92.8,44,97.9-6.8C256.3,419.4,249.8,398.9,235,382.7z"/>
		<path class="st6" d="M176,452.1c-4.4-17.8,0.4-36.9,10.3-52.7c0.2-0.3,0.4-0.7,0.7-1c1.3-1.8,4.4-1.4,5.2,0.6
			c2.9,7.5,8.3,11.6,8.3,11.6c0.2-13.3,5-25.5,13.9-35.2c-2-2.7-8.1-9.4-9.2-23.3c-0.1-1.8-2.3-2.7-3.7-1.4
			c-12.9,11.7-20,27.9-20.3,46c0,0-5.4-4.5-8.3-13c-0.8-2.3-3.8-2.7-5.2-0.7c-0.3,0.4-0.5,0.8-0.7,1.1c-10,17.6-14.8,39-10.3,58.9
			c4.1,18.5,20.9,29.5,39.6,32.2C186.3,470.4,178.5,462.6,176,452.1z"/>
		<path class="st3" d="M161.1,258.1c3.4-40.6,19-76.7,45-104.3c-0.3-2-0.5-4-0.7-6.2c-0.4-4.8-6.1-7.1-9.7-3.8
			c-27.1,24.6-44.6,56.6-51,92.8l0,0c-0.5,2.7-1.1,6.6-1.4,9.7c0,0,0,0,0,0c-0.8,6.4-1.2,12.9-1.3,19.6
			C142.7,265.9,159.1,274.4,161.1,258.1z"/>
		<g>
			<path class="st7" d="M142.4,425.5c-7.1-33.4-1-69,12.9-99.8c-2.7-3.8-5.7-8.9-7.9-15.2c-1.4-4.1-6.9-4.9-9.2-1.2
				c-0.5,0.7-0.9,1.4-1.3,2.1c-17.9,31.6-26.5,70-18.5,105.8c6.2,28,28.8,46.6,55.9,54.6C158.5,461.1,146.6,445.6,142.4,425.5z"/>
			<path class="st7" d="M187.9,319.1c2.3-16.8,9.2-35.2,20-50.6c-1.2-4.4-2.1-9.3-2.5-14.8c-0.3-3.3-4.1-4.8-6.6-2.6
				c-14.4,13.1-24.8,29.3-30.7,47.5l0,0c-0.9,2.9-2.2,7.6-3,11.3c0,0,0,0,0,0c-1.6,7.6-2.5,15.6-2.6,23.7
				C175.3,335.3,186,332.1,187.9,319.1z"/>
		</g>
	</g>
</g>
</svg>
