<?xml version="1.0" encoding="utf-8"?>
<!-- Generator: Adobe Illustrator 23.0.3, SVG Export Plug-In . SVG Version: 6.00 Build 0)  -->
<svg version="1.1" id="Capa_1" xmlns="http://www.w3.org/2000/svg" xmlns:xlink="http://www.w3.org/1999/xlink" x="0px" y="0px"
	 viewBox="0 0 19.2 19.2" style="enable-background:new 0 0 19.2 19.2;" xml:space="preserve">
<style type="text/css">
	.st0{fill:#FFFFFF;}
</style>
<g>
	<path class="st0" d="M16.4,15H5.8c-0.4,0-0.7-0.3-0.7-0.7v0c0-0.4,0.3-0.7,0.7-0.7h10.6c0.4,0,0.7,0.3,0.7,0.7v0
		C17.1,14.7,16.8,15,16.4,15z"/>
	<g>
		<path class="st0" d="M17.1,12H5.8c-0.4,0-0.7-0.3-0.7-0.7v0c0-0.4,0.3-0.7,0.7-0.7h11.2c0.4,0,0.7,0.3,0.7,0.7v0
			C17.7,11.7,17.4,12,17.1,12z"/>
		<path class="st0" d="M18.6,5.4H4.3c-0.4,0-0.7-0.3-0.7-0.7v0C3.6,4.3,3.9,4,4.3,4h14.3c0.4,0,0.7,0.3,0.7,0.7v0
			C19.2,5.1,18.9,5.4,18.6,5.4z"/>
	</g>
	<path class="st0" d="M3.2,3H0.7C0.3,3,0,2.7,0,2.3v0C0,2,0.3,1.6,0.7,1.6h2.5c0.4,0,0.7,0.3,0.7,0.7v0C3.9,2.7,3.6,3,3.2,3z"/>
	<rect x="-1.5" y="7.6" transform="matrix(0.2162 0.9763 -0.9763 0.2162 11.6518 2.1165)" class="st0" width="12" height="1.4"/>
	<rect x="14.3" y="7.2" transform="matrix(-0.2162 0.9763 -0.9763 -0.2162 29.3271 -7.7896)" class="st0" width="7" height="1.4"/>
	<g>
		<g>
			<rect x="8.9" y="4.9" class="st0" width="0.8" height="6.1"/>
			<rect x="13.3" y="4.9" class="st0" width="0.8" height="6.1"/>
		</g>
		
			<rect x="11.1" y="1.2" transform="matrix(-1.836970e-16 1 -1 -1.836970e-16 19.4625 -3.4945)" class="st0" width="0.8" height="13.5"/>
	</g>
	<g>
		<path class="st0" d="M7.8,17.6L7.8,17.6c-0.5,0-0.9-0.4-0.9-0.9v0c0-0.5,0.4-0.9,0.9-0.9h0c0.5,0,0.9,0.4,0.9,0.9v0
			C8.7,17.2,8.3,17.6,7.8,17.6z"/>
		<path class="st0" d="M14.4,17.6L14.4,17.6c-0.5,0-0.9-0.4-0.9-0.9v0c0-0.5,0.4-0.9,0.9-0.9h0c0.5,0,0.9,0.4,0.9,0.9v0
			C15.3,17.2,14.9,17.6,14.4,17.6z"/>
	</g>
</g>
</svg>
