<?xml version="1.0" standalone="no"?><!-- Generator: Gravit.io --><svg xmlns="http://www.w3.org/2000/svg" xmlns:xlink="http://www.w3.org/1999/xlink" style="isolation:isolate" viewBox="2484 1044 51 51" width="51" height="51"><path d=" M 2511.4 1080.7 C 2503.6 1082 2497 1075.4 2498.3 1067.6 C 2499 1062.8 2502.8 1059 2507.6 1058.3 C 2515.4 1057 2522 1063.6 2520.7 1071.4 C 2520 1076.2 2516.2 1080 2511.4 1080.7 Z  M 2511.5 1054.2 C 2501.4 1052.9 2492.9 1061.4 2494.2 1071.5 C 2495.1 1078.4 2500.6 1083.9 2507.5 1084.8 C 2517.6 1086.1 2526 1077.6 2524.8 1067.5 C 2523.9 1060.6 2518.4 1055.1 2511.5 1054.2 Z  M 2508.9 1044 L 2508.9 1044 C 2507.8 1044 2506.9 1044.9 2506.9 1046 L 2506.9 1048.7 C 2506.9 1049.9 2507.8 1050.7 2508.9 1050.7 L 2508.9 1050.7 C 2510 1050.7 2510.9 1049.9 2510.9 1048.7 L 2510.9 1046 C 2510.9 1044.9 2510 1044 2508.9 1044 Z  M 2506.9 1090.3 L 2506.9 1093 C 2506.9 1094.1 2507.8 1095 2508.9 1095 L 2508.9 1095 C 2510 1095 2510.9 1094.1 2510.9 1093 L 2510.9 1090.3 C 2510.9 1089.1 2510 1088.3 2508.9 1088.3 L 2508.9 1088.3 C 2507.8 1088.3 2506.9 1089.1 2506.9 1090.3 Z  M 2488.7 1067.5 L 2486 1067.5 C 2484.9 1067.5 2484 1068.4 2484 1069.5 L 2484 1069.5 C 2484 1070.6 2484.9 1071.5 2486 1071.5 L 2488.7 1071.5 C 2489.9 1071.5 2490.7 1070.6 2490.7 1069.5 L 2490.7 1069.5 C 2490.7 1068.4 2489.9 1067.5 2488.7 1067.5 Z  M 2533 1067.5 L 2530.3 1067.5 C 2529.1 1067.5 2528.3 1068.4 2528.3 1069.5 L 2528.3 1069.5 C 2528.3 1070.6 2529.1 1071.5 2530.3 1071.5 L 2533 1071.5 C 2534.1 1071.5 2535 1070.6 2535 1069.5 L 2535 1069.5 C 2535 1068.4 2534.1 1067.5 2533 1067.5 Z  M 2495.7 1053.9 L 2493.7 1052 C 2493 1051.2 2491.7 1051.2 2490.9 1052 C 2490.1 1052.8 2490.2 1054.1 2490.9 1054.9 L 2492.9 1056.8 C 2493.7 1057.6 2495 1057.5 2495.7 1056.8 C 2496.5 1056 2496.5 1054.7 2495.7 1053.9 Z  M 2522.5 1085.9 L 2524.5 1087.8 C 2525.3 1088.6 2526.5 1088.6 2527.3 1087.8 L 2527.3 1087.8 C 2528.1 1087 2528.1 1085.7 2527.3 1084.9 L 2525.3 1083 C 2524.5 1082.2 2523.3 1082.3 2522.5 1083 L 2522.5 1083 C 2521.7 1083.8 2521.7 1085.1 2522.5 1085.9 Z  M 2491.6 1087.7 L 2491.6 1087.7 C 2492.4 1088.5 2493.7 1088.5 2494.5 1087.7 L 2496.4 1085.7 C 2497.2 1084.9 2497.1 1083.6 2496.4 1082.9 L 2496.4 1082.9 C 2495.6 1082.1 2494.3 1082.1 2493.5 1082.9 L 2491.6 1084.9 C 2490.8 1085.6 2490.8 1086.9 2491.6 1087.7 Z  M 2525.5 1056.1 L 2527.4 1054.1 C 2528.2 1053.4 2528.2 1052.1 2527.4 1051.3 L 2527.4 1051.3 C 2526.6 1050.5 2525.3 1050.5 2524.5 1051.3 L 2522.6 1053.3 C 2521.8 1054.1 2521.9 1055.4 2522.6 1056.1 L 2522.6 1056.1 C 2523.4 1056.9 2524.7 1056.9 2525.5 1056.1 Z " fill-rule="evenodd" fill="rgb(61,57,126)"/></svg>